<svg width="532" height="147" viewBox="0 0 532 147" fill="none" xmlns="http://www.w3.org/2000/svg">
<g clip-path="url(#clip0_21_142)">
<path d="M161.479 112.85V46.3353H173.776V73.8105H206.489V46.3353H218.786V112.85H206.489V84.4436H173.776V112.85H161.479Z" fill="white"/>
<path d="M256.603 112.85H243.998L272.148 46.3353H285.373L314.142 112.85H300.917L293.338 94.6885H271.297L275.551 83.9779H288.93L278.412 58.9863L256.603 112.85Z" fill="white"/>
<path d="M338.194 110.056V98.8796C344.845 101.363 352.347 102.605 360.699 102.605C370.83 102.605 375.934 99.1901 375.934 92.3601C375.934 87.3928 372.841 84.9092 366.577 84.9092H356.213C342.679 84.9092 335.874 78.7001 335.874 66.282C335.874 52.622 345.541 45.792 364.875 45.792C372.299 45.792 379.337 46.8786 385.988 49.0518V60.2281C379.337 57.7445 372.299 56.5027 364.875 56.5027C353.739 56.5027 348.17 59.7624 348.17 66.282C348.17 71.2492 350.877 73.7329 356.213 73.7329H366.577C381.038 73.7329 388.231 79.9419 388.231 92.3601C388.231 106.331 379.028 113.316 360.699 113.316C352.347 113.316 344.845 112.229 338.194 110.056Z" fill="white"/>
<path d="M463.557 46.3353V56.9684H430.379V73.7329H462.01V84.754H430.225V102.139H464.176V112.85H418.16V46.3353H463.557Z" fill="white"/>
<path d="M505.706 46.3353V102.139H532V112.85H493.409V46.3353H505.706Z" fill="white"/>
<path d="M125.75 60.3833V40.9799H106.415V30.5021H76.5634H46.7114V60.4609H16.8594V90.4197H27.2998V109.823H46.634V120.301H63.2615V139.782H45.474V147H70.4538V120.301H76.4087H81.5903V147H106.725V139.782H88.9373V120.301H106.338V109.823H125.672V90.4197H136.113V60.4609H125.75V60.3833ZM76.4861 90.2645V73.9656H70.1444V90.2645H64.4215V60.3057H76.4861V73.888V90.2645ZM94.1189 90.2645V60.3057H106.338V73.888H99.9191V90.1869H94.1189V90.2645Z" fill="white"/>
<path d="M33.1002 22.6632H7.88843V47.9652H33.1002V22.6632Z" fill="white"/>
<path d="M56.3012 2.09558H40.2925V18.1616H56.3012V2.09558Z" fill="white"/>
<path d="M22.8143 0H11.0591V11.7973H22.8143V0Z" fill="white"/>
<path d="M7.88836 57.1235H0V65.0401H7.88836V57.1235Z" fill="white"/>
<path d="M74.862 10.1674H66.9736V18.0839H74.862V10.1674Z" fill="white"/>
</g>
<defs>
<clipPath id="clip0_21_142">
<rect width="532" height="147" fill="white"/>
</clipPath>
</defs>
</svg>
