<svg width="532" height="183" viewBox="0 0 532 183" fill="none" xmlns="http://www.w3.org/2000/svg">
<path d="M27.2727 123.595C25.3271 124.424 24.9692 124.581 24.5704 124.782C24.1492 124.997 23.9889 125.183 24.0747 125.641C24.0933 125.749 24.1716 125.979 24.2499 126.158C24.3132 126.299 24.3207 126.389 24.2275 126.422C24.1418 126.463 24.0747 126.385 23.9964 126.192C23.7057 125.514 23.3963 124.7 23.2323 124.309C23.1018 124.004 22.7179 123.212 22.5204 122.754C22.4421 122.561 22.4309 122.46 22.5167 122.423C22.6061 122.382 22.6657 122.449 22.7254 122.579C22.785 122.717 22.826 122.791 22.9229 122.933C23.1354 123.253 23.3963 123.26 23.8548 123.093C24.2759 122.944 24.6338 122.791 26.5794 121.958L28.3723 121.192C30.2322 120.392 30.8547 119.689 31.0895 118.844C31.3206 118.063 31.1193 117.456 30.9292 117.021C30.6944 116.459 30.2173 115.849 29.4793 115.552C28.4729 115.15 27.3025 115.604 25.9831 116.169L24.3766 116.854C22.4347 117.691 22.0694 117.843 21.6706 118.04C21.2456 118.256 21.0854 118.439 21.1785 118.896C21.1972 119.011 21.2717 119.235 21.3351 119.376C21.3947 119.514 21.4022 119.607 21.3127 119.64C21.2233 119.681 21.1599 119.599 21.0816 119.417C20.8058 118.773 20.5002 117.951 20.4964 117.94C20.4294 117.784 20.0454 116.995 19.833 116.5C19.7547 116.322 19.7435 116.221 19.833 116.184C19.9224 116.139 19.9821 116.21 20.0454 116.363C20.1088 116.504 20.1535 116.578 20.2467 116.72C20.4592 117.036 20.7201 117.047 21.1785 116.88C21.596 116.731 21.9576 116.575 23.8995 115.741L25.2711 115.157C26.695 114.547 28.2642 114.041 29.6507 114.722C30.8211 115.295 31.3579 116.162 31.7157 116.984C32.0064 117.665 32.4984 118.907 32.0549 120.202C31.7455 121.102 31.0075 121.991 29.1476 122.788L27.2727 123.595ZM26.7434 109.376C27.7983 109.119 28.1151 108.859 28.1524 108.569C28.1822 108.323 28.1374 108.055 28.089 107.843C28.0554 107.694 28.0629 107.609 28.1524 107.59C28.2567 107.568 28.3126 107.683 28.3574 107.873C28.5512 108.755 28.6295 109.309 28.6854 109.566C28.7115 109.688 28.8941 110.317 29.0506 111.028C29.0916 111.206 29.1066 111.329 28.9798 111.359C28.8978 111.377 28.8531 111.296 28.8233 111.162C28.786 110.983 28.7189 110.749 28.622 110.566C28.4319 110.235 28.0294 110.273 26.8366 110.511L18.7521 112.155C18.48 112.214 18.2787 112.214 18.2489 112.077C18.2153 111.928 18.3644 111.768 18.5582 111.482C18.6999 111.281 20.4629 108.732 22.0023 106.31C22.7254 105.183 24.2834 102.921 24.4511 102.642L24.4362 102.575L18.3495 104.049C17.522 104.246 17.2947 104.428 17.2276 104.778C17.1903 105.005 17.2611 105.321 17.3059 105.514C17.3431 105.678 17.3133 105.741 17.2276 105.752C17.1232 105.782 17.071 105.633 17.0263 105.425C16.8735 104.733 16.7691 104.075 16.7095 103.788C16.6759 103.636 16.5231 103.126 16.374 102.464C16.333 102.285 16.3144 102.147 16.4299 102.125C16.5119 102.107 16.5716 102.181 16.6051 102.345C16.6349 102.479 16.661 102.586 16.7356 102.739C16.9257 103.1 17.2388 103.141 18.0029 102.988L26.6242 101.251C26.9223 101.184 27.0528 101.214 27.0863 101.333C27.1199 101.485 27.0081 101.682 26.8851 101.865C26.2589 102.895 24.8574 105.034 23.7653 106.746C22.6173 108.546 21.2494 110.429 21.0481 110.73L21.0555 110.771L26.7434 109.376ZM20.0156 96.9391C17.906 97.0693 17.5109 97.0953 17.0673 97.1548C16.5977 97.2144 16.3666 97.3669 16.3181 97.6757C16.2846 97.8319 16.2846 98.0105 16.2958 98.1816C16.3032 98.3156 16.2809 98.4049 16.169 98.4123C16.0908 98.4197 16.0535 98.3119 16.0386 98.0886C16.0013 97.5604 15.9864 96.6824 15.9603 96.2806C15.9379 95.9346 15.8448 95.1199 15.8112 94.5879C15.8 94.4093 15.8224 94.294 15.9044 94.2865C16.0125 94.2791 16.0498 94.3646 16.0572 94.506C16.0647 94.6437 16.087 94.7516 16.1243 94.919C16.2175 95.291 16.4598 95.3877 16.9518 95.3766C17.399 95.3766 17.7904 95.3542 19.9038 95.2203L22.3527 95.0641C23.7019 94.9859 24.8015 94.9115 25.3941 94.8222C25.7669 94.7516 26.0129 94.6437 26.039 94.2233C26.0539 94.0261 26.0613 93.721 26.0502 93.5127C26.0427 93.3565 26.0762 93.2858 26.1471 93.282C26.2402 93.2783 26.2924 93.3862 26.3036 93.5387C26.3632 94.4539 26.3782 95.3245 26.3968 95.7077C26.4154 96.0276 26.5123 96.8944 26.5496 97.4562C26.5608 97.6348 26.5272 97.7352 26.4266 97.7389C26.3558 97.7464 26.3148 97.6868 26.3036 97.5194C26.2924 97.3111 26.2477 97.1474 26.2179 97.0246C26.1433 96.7493 25.9048 96.6787 25.4985 96.6638C24.9133 96.6303 23.8138 96.701 22.4645 96.7828L20.0156 96.9391ZM17.0338 90.6927C16.251 90.9643 16.0796 91.1913 15.9081 91.6861C15.8336 91.8907 15.8261 92.1102 15.8187 92.2255C15.8112 92.352 15.7665 92.3892 15.6808 92.3855C15.5727 92.378 15.5652 92.2255 15.5838 92.0172C15.6323 91.2805 15.7255 90.4918 15.7516 90.0045C15.7739 89.6585 15.7739 88.9889 15.8224 88.2932C15.8336 88.1258 15.8708 87.9769 15.9678 87.9807C16.0647 87.9881 16.087 88.07 16.0796 88.2002C16.0684 88.4271 16.0684 88.6317 16.1429 88.747C16.21 88.8438 16.2995 88.8996 16.4262 88.9033C16.6089 88.9145 17.004 88.814 17.5183 88.654L23.9889 86.6674L23.9927 86.6116C22.5017 85.9122 18.1371 83.8251 17.2388 83.4345C17.0636 83.3564 16.8586 83.282 16.7319 83.2783C16.62 83.2708 16.5045 83.3229 16.456 83.4419C16.3889 83.6093 16.3666 83.8177 16.3554 83.9925C16.3442 84.119 16.3219 84.2269 16.2287 84.2232C16.1169 84.2158 16.0982 84.0893 16.1131 83.8288C16.1579 83.1294 16.2361 82.5528 16.2473 82.3742C16.2622 82.1398 16.2622 81.4814 16.2883 81.061C16.2995 80.8824 16.3368 80.7708 16.4337 80.7782C16.5306 80.7819 16.5529 80.8675 16.5418 81.0089C16.5269 81.1465 16.5082 81.4367 16.6573 81.7008C16.7691 81.8869 16.9928 82.1138 17.8612 82.5454C19.136 83.1704 19.8628 83.5908 21.5252 84.4539C23.5007 85.4732 24.9767 86.2247 25.6476 86.5707C26.4303 86.9799 26.654 87.0804 26.6391 87.2701C26.6279 87.4487 26.4229 87.5194 25.7594 87.7426L17.0338 90.6927ZM20.9735 78.3787C18.9012 77.9322 18.5247 77.8467 18.0811 77.7834C17.6115 77.7127 17.3692 77.776 17.1791 78.2038C17.127 78.3005 17.0636 78.5349 17.0226 78.7246C16.989 78.8772 16.9443 78.9553 16.8511 78.9293C16.7542 78.9069 16.7505 78.8102 16.7878 78.6056C16.866 78.2373 16.963 77.8467 17.0375 77.5081C17.127 77.1547 17.2052 76.8459 17.25 76.6562C17.3431 76.2209 17.9321 73.5088 17.9693 73.2484C17.9954 72.9843 18.0178 72.761 18.0141 72.6457C18.0141 72.5713 17.9917 72.4858 18.0066 72.4151C18.0215 72.3481 18.0811 72.3444 18.1482 72.3593C18.2414 72.3779 18.3905 72.482 19.0092 72.6569C19.1434 72.7015 19.7323 72.8578 19.8889 72.9173C19.9597 72.9471 20.0305 72.9917 20.0082 73.0847C19.9895 73.174 19.9187 73.1889 19.792 73.1628C19.7025 73.1442 19.4677 73.107 19.2888 73.1442C19.0279 73.1852 18.8341 73.2893 18.5992 73.9478C18.521 74.1785 18.1892 75.5959 18.1296 75.8749C18.1147 75.9456 18.1482 75.9754 18.2451 75.994L21.6929 76.7343C21.7861 76.7529 21.8457 76.7529 21.8606 76.671C21.9277 76.3697 22.2632 74.8072 22.3042 74.4873C22.3452 74.1561 22.3489 73.9441 22.2371 73.7878C22.1514 73.6688 22.0955 73.5981 22.1104 73.5349C22.1216 73.4753 22.1588 73.4456 22.2371 73.4567C22.3191 73.4753 22.5278 73.5758 23.2137 73.7804C23.482 73.8548 24.0188 74.0111 24.1157 74.0297C24.2238 74.0557 24.3729 74.0892 24.3468 74.212C24.3281 74.3087 24.2685 74.3236 24.1977 74.3087C24.0598 74.2901 23.8846 74.2529 23.6945 74.2566C23.4075 74.264 23.1578 74.4128 22.9938 74.9039C22.9155 75.1569 22.6061 76.5036 22.5353 76.831C22.5204 76.898 22.5763 76.9203 22.6546 76.9426L23.7318 77.1733C24.1977 77.2737 25.4463 77.5602 25.8451 77.6272C26.7919 77.802 27.0379 77.6272 27.3398 76.2395C27.4181 75.8861 27.5411 75.3132 27.4516 74.9262C27.3696 74.5393 27.1124 74.3124 26.5757 74.0929C26.4378 74.0371 26.3893 73.9999 26.4117 73.9032C26.4415 73.7953 26.5459 73.8176 26.6801 73.8474C26.9932 73.9143 27.8989 74.2231 28.1561 74.3496C28.4878 74.5207 28.4655 74.6435 28.3499 75.1606C28.1263 76.18 27.9436 76.924 27.8057 77.5044C27.6529 78.0848 27.5523 78.5089 27.4591 78.9106C27.4255 79.0595 27.3622 79.3608 27.3063 79.6882C27.2354 80.0007 27.1907 80.3616 27.1311 80.6331C27.0938 80.8154 27.0342 80.8973 26.9373 80.875C26.8664 80.8601 26.8403 80.7968 26.8702 80.6331C26.9186 80.4285 26.9261 80.2611 26.9261 80.1309C26.9298 79.8482 26.6465 79.7142 26.2589 79.5803C25.7035 79.3868 24.6263 79.1599 23.3739 78.8846L20.9735 78.3787ZM23.5603 68.3637C21.5848 67.601 21.2195 67.4597 20.7909 67.3295C20.3399 67.1844 20.0902 67.2104 19.833 67.5973C19.7659 67.6903 19.669 67.9061 19.5982 68.0884C19.5423 68.2298 19.4901 68.3042 19.3969 68.267C19.3112 68.2298 19.3186 68.1293 19.3894 67.9321C19.6578 67.2439 20.0119 66.4478 20.1163 66.1687C20.2877 65.7297 20.6306 64.7253 20.7872 64.3235C21.104 63.505 21.5177 62.6642 22.2707 62.1508C22.6583 61.883 23.523 61.6188 24.3915 61.9574C25.3569 62.3294 26.0837 63.0698 26.6428 64.796C28.5475 64.2007 30.0533 63.7543 31.1528 63.3041C32.189 62.8689 32.4835 62.3703 32.6028 62.188C32.681 62.0578 32.7444 61.9462 32.7817 61.8383C32.8227 61.7342 32.8786 61.697 32.9457 61.723C33.0501 61.7677 33.0389 61.8644 32.983 62.0206L32.5059 63.2558C32.2263 63.9812 32.0362 64.2826 31.7231 64.5541C31.205 64.9931 30.4037 65.2535 29.1215 65.5921C28.2045 65.8339 27.0901 66.0943 26.8292 66.1836C26.7285 66.2171 26.6838 66.2915 26.6502 66.3808L26.1843 67.5043C26.1582 67.5713 26.1694 67.6159 26.2477 67.6494L26.4303 67.7201C27.6417 68.1851 28.6705 68.5832 29.2407 68.7283C29.6284 68.8287 29.9452 68.8622 30.1502 68.4939C30.2508 68.3079 30.3887 68.0326 30.4484 67.8763C30.4931 67.7722 30.549 67.735 30.6124 67.761C30.7018 67.8019 30.7056 67.9024 30.6459 68.0698C30.3515 68.8213 29.9452 69.77 29.8669 69.9671C29.7737 70.2089 29.4905 71.0423 29.2929 71.5668C29.2221 71.7268 29.1476 71.8049 29.0581 71.7677C28.991 71.7417 28.9798 71.6822 29.0357 71.5259C29.114 71.325 29.1438 71.1613 29.1662 71.0348C29.2146 70.7595 28.9537 70.5772 28.5959 70.3801C28.0741 70.1048 27.0491 69.7067 25.8563 69.2454L23.5603 68.3637ZM25.1817 67.229C25.3233 67.2848 25.3904 67.2774 25.4612 67.203C25.6588 66.9686 25.8489 66.5928 25.9756 66.2692C26.1769 65.7446 26.1918 65.5623 26.1098 65.261C25.9793 64.7625 25.5246 64.1523 24.4586 63.7431C22.6136 63.0325 21.6035 64.0445 21.3053 64.8108C21.1823 65.1345 21.1003 65.3726 21.0891 65.5177C21.0816 65.6181 21.1226 65.6665 21.227 65.7037L25.1817 67.229ZM33.3892 61.4403C33.1917 61.5816 33.1134 61.5891 32.845 61.4366C32.1741 61.0534 31.4771 60.592 31.2908 60.473C31.1156 60.3614 31.0038 60.2461 31.0597 60.1493C31.1268 60.0452 31.2386 60.0898 31.3355 60.1456C31.492 60.2349 31.7753 60.3316 32.0176 60.3837C33.065 60.6218 33.803 60.0973 34.2316 59.3495C34.8503 58.2594 34.4143 57.3071 33.7732 56.9462C33.1693 56.6114 32.5096 56.4774 31.1491 57.0355L30.3962 57.3443C28.5959 58.0846 27.4852 58.0623 26.5049 57.5079C25.1742 56.749 24.8462 55.1009 25.8041 53.4119C26.2514 52.6232 26.6614 52.1842 26.9298 51.9201C27.0118 51.8308 27.0863 51.7862 27.1683 51.8383C27.3249 51.9238 27.6492 52.1768 28.5959 52.7051C28.8643 52.8576 28.9425 52.9469 28.8866 53.0436C28.8382 53.1292 28.745 53.1218 28.5996 53.0436C28.4953 52.9804 28.0815 52.8278 27.6194 52.9023C27.2876 52.9581 26.7211 53.1032 26.2738 53.8881C25.7631 54.781 25.9756 55.6218 26.7024 56.031C27.2615 56.3472 27.8467 56.3063 29.1774 55.7371L29.6246 55.5436C31.5666 54.6991 32.6922 54.6582 33.8477 55.313C34.5484 55.7111 35.2343 56.4514 35.3125 57.6456C35.3573 58.4715 35.0814 59.2118 34.7162 59.8517C34.3099 60.5548 33.9148 61.0496 33.3892 61.4403ZM33.0687 49.9484C31.3579 48.7021 31.041 48.4751 30.6646 48.2296C30.2657 47.9803 29.9862 47.9506 29.7551 48.1515C29.6284 48.2482 29.5128 48.3858 29.4159 48.5235C29.3339 48.6351 29.2594 48.6872 29.1699 48.6202C29.1028 48.5719 29.1476 48.464 29.278 48.2854C29.5911 47.8576 30.139 47.173 30.3813 46.8457C30.5863 46.5666 31.0373 45.8784 31.3504 45.4506C31.4585 45.3055 31.5442 45.2311 31.6113 45.2794C31.697 45.3501 31.6747 45.432 31.5927 45.5436C31.5107 45.6552 31.4548 45.7556 31.3765 45.9044C31.2125 46.2541 31.3355 46.4774 31.7194 46.7861C32.0623 47.0726 32.3791 47.3033 34.09 48.5495L36.0729 49.9967C37.165 50.7929 38.0521 51.4402 38.5739 51.749C38.9019 51.935 39.1591 52.0057 39.4499 51.7006C39.5878 51.5592 39.7965 51.3249 39.9158 51.1574C40.0052 51.0347 40.0798 51.0012 40.1431 51.0421C40.2214 51.1054 40.1879 51.217 40.0947 51.3397C39.5505 52.0801 38.9989 52.7683 38.7752 53.0734C38.5851 53.3264 38.1043 54.0667 37.7726 54.5131C37.6645 54.6619 37.5713 54.714 37.4967 54.6582C37.4371 54.6173 37.4334 54.5466 37.5377 54.4127C37.6607 54.2453 37.7353 54.0927 37.7875 53.9737C37.903 53.7207 37.7614 53.5087 37.4632 53.2408C37.0308 52.839 36.1437 52.1917 35.0479 51.3955L33.0687 49.9484ZM36.5053 40.577L35.1187 42.1209C34.582 42.7273 34.4105 43.0175 34.4851 43.3784C34.5447 43.6202 34.6155 43.7876 34.6789 43.8843C34.7423 43.9811 34.7534 44.048 34.6938 44.115C34.623 44.1857 34.5559 44.1596 34.4478 44.048C34.2838 43.8955 33.5458 42.8352 33.4824 42.7348C33.3781 42.5785 33.3482 42.4929 33.4041 42.4334C33.4824 42.3516 33.6762 42.3479 33.9409 42.1135C34.2503 41.8493 34.6342 41.4848 34.951 41.1499L38.7454 37.1469C39.0548 36.8233 39.2337 36.574 39.3567 36.4029C39.4648 36.2206 39.5244 36.1201 39.5654 36.0829C39.6325 36.0122 39.7033 36.0606 39.8561 36.202C40.0686 36.4029 40.7395 37.0874 41.0041 37.3404C41.0936 37.4445 41.1383 37.5227 41.0824 37.5822C41.0041 37.6603 40.9371 37.6343 40.7731 37.5041L40.6538 37.4148C40.3705 37.1841 39.83 37.1878 38.9541 38.0733L37.7167 39.3196L41.8726 43.237C42.8044 44.115 43.6058 44.8702 44.0904 45.2311C44.3997 45.4617 44.683 45.618 45.011 45.3501C45.1676 45.2273 45.3987 45.0264 45.5403 44.8739C45.6447 44.7623 45.7267 44.74 45.7714 44.7883C45.8459 44.859 45.7975 44.9632 45.6931 45.0748C45.0632 45.7445 44.4296 46.3509 44.1649 46.6336C43.9413 46.8643 43.3673 47.5339 42.9908 47.9394C42.8678 48.0696 42.7672 48.1143 42.6964 48.0436C42.6442 47.9952 42.6516 47.9283 42.7709 47.8092C42.9125 47.6567 43.0057 47.519 43.0728 47.4074C43.2219 47.1656 43.0579 46.894 42.797 46.589C42.4131 46.1351 41.6192 45.3836 40.6873 44.4982L36.5053 40.577ZM47.0871 38.8694C47.0312 38.914 47.0275 38.9475 47.0573 39.0331L47.7133 41.0569C47.8214 41.4141 47.9742 41.7191 48.0823 41.8493C48.2389 42.0465 48.4513 42.106 48.7831 41.8382L48.9471 41.708C49.0775 41.6075 49.1297 41.6038 49.1782 41.6633C49.249 41.7489 49.2005 41.8233 49.0812 41.92C48.7309 42.1953 48.2351 42.5376 47.9034 42.8017C47.7841 42.8985 47.2064 43.4081 46.6436 43.8583C46.5019 43.9699 46.4162 44.0034 46.3491 43.9178C46.2932 43.8471 46.323 43.795 46.4125 43.7244C46.5094 43.6462 46.6548 43.5123 46.733 43.4342C47.184 42.9691 47.0946 42.4334 46.8784 41.7191L44.1575 32.7124C44.0382 32.2957 44.0046 32.1208 44.1127 32.0353C44.2096 31.9571 44.355 32.0018 44.6606 32.1655C45.4024 32.5524 50.6914 35.603 52.7079 36.7042C53.9007 37.3515 54.3405 37.2548 54.6163 37.1246C54.8064 37.0279 54.9779 36.9051 55.1083 36.8047C55.194 36.7302 55.2611 36.7042 55.3208 36.7749C55.3953 36.8605 55.3096 36.9646 54.9108 37.2883C54.5194 37.6008 53.7218 38.2332 52.8309 38.9066C52.6259 39.0517 52.4955 39.1559 52.4396 39.0815C52.3874 39.0145 52.4135 38.9624 52.5141 38.862C52.5775 38.7801 52.5737 38.6201 52.4172 38.5346L49.7 36.92C49.6366 36.8828 49.5844 36.8865 49.5322 36.9311L47.0871 38.8694ZM48.8762 36.5554C48.9284 36.5108 48.9135 36.4735 48.8762 36.4475L45.749 34.539C45.7043 34.5055 45.6484 34.4609 45.6148 34.4832C45.5813 34.5092 45.6037 34.5762 45.626 34.6357L46.7629 38.1105C46.7927 38.1626 46.8299 38.1886 46.8672 38.1514L48.8762 36.5554ZM56.1184 36.4661C55.8799 36.4996 55.8053 36.4587 55.6488 36.1982C55.2611 35.536 54.8809 34.792 54.7803 34.5911C54.6871 34.4051 54.6424 34.2526 54.7393 34.2005C54.8437 34.1335 54.9219 34.2377 54.9741 34.3344C55.0636 34.4906 55.2649 34.7139 55.4438 34.8776C56.234 35.6067 57.1322 35.51 57.874 35.071C58.9549 34.4311 59.0481 33.3932 58.6716 32.7533C58.325 32.1729 57.8181 31.7265 56.3607 31.5368L55.5519 31.4326C53.6211 31.1833 52.6707 30.6141 52.0929 29.6469C51.3102 28.3299 51.8544 26.7376 53.5205 25.748C54.2995 25.2867 54.8735 25.1081 55.235 25.0077C55.358 24.9668 55.44 24.9668 55.4885 25.056C55.578 25.2123 55.7345 25.588 56.2936 26.5218C56.4501 26.786 56.4688 26.9087 56.3719 26.9608C56.2936 27.0092 56.2116 26.9608 56.1296 26.8157C56.0625 26.7078 55.783 26.373 55.3506 26.2093C55.0375 26.0903 54.4747 25.934 53.6957 26.3953C52.8086 26.9236 52.5737 27.7532 52.9987 28.475C53.3267 29.0219 53.8522 29.2823 55.2872 29.446L55.7718 29.498C57.8665 29.7287 58.8766 30.2495 59.555 31.3879C59.9613 32.0836 60.1924 33.0621 59.6594 34.1335C59.2866 34.8701 58.6791 35.3723 58.0454 35.7555C57.3596 36.1536 56.767 36.388 56.1184 36.4661ZM128.92 26.3581L127.098 25.3537C126.386 24.9668 126.062 24.8589 125.726 25.0188C125.495 25.123 125.35 25.2383 125.275 25.3202C125.193 25.3983 125.13 25.4244 125.051 25.3871C124.973 25.3388 124.977 25.2644 125.059 25.1305C125.167 24.9407 126.043 23.9809 126.121 23.8953C126.248 23.7614 126.33 23.7093 126.401 23.754C126.498 23.8135 126.546 23.9995 126.833 24.2004C127.161 24.4385 127.605 24.7361 127.996 24.963L132.76 27.7532C133.147 27.9839 133.43 28.0992 133.624 28.1811C133.826 28.2518 133.937 28.2815 133.986 28.3113C134.068 28.3634 134.042 28.4415 133.934 28.6201C133.785 28.8693 133.259 29.6803 133.08 29.9928C133.002 30.1044 132.931 30.164 132.856 30.1231C132.763 30.0635 132.774 29.9928 132.868 29.8031L132.935 29.6692C133.091 29.3381 132.965 28.8172 131.913 28.1662L130.419 27.2361L127.526 32.158C126.878 33.263 126.322 34.2116 126.073 34.7585C125.912 35.1194 125.834 35.4244 126.162 35.6811C126.319 35.8039 126.565 35.9825 126.744 36.0866C126.878 36.1648 126.919 36.2355 126.882 36.295C126.833 36.3768 126.718 36.3619 126.583 36.2801C125.793 35.8262 125.059 35.3463 124.72 35.1491C124.448 34.9892 123.669 34.5799 123.184 34.2972C123.027 34.2116 122.964 34.1186 123.013 34.0405C123.05 33.9772 123.117 33.9698 123.262 34.0554C123.441 34.1633 123.601 34.2228 123.724 34.26C123.993 34.353 124.22 34.1335 124.459 33.8061C124.817 33.3374 125.372 32.3887 126.024 31.2838L128.92 26.3581ZM135.201 34.2712C136.584 32.6677 136.833 32.3701 137.106 32.0204C137.393 31.6409 137.452 31.4028 137.169 31.0271C137.102 30.9378 136.938 30.7704 136.781 30.6402C136.666 30.5397 136.621 30.4653 136.684 30.3909C136.751 30.3165 136.841 30.3574 136.997 30.4951C137.557 30.975 138.198 31.5777 138.514 31.8493C138.768 32.065 139.461 32.6082 139.841 32.9319C139.998 33.0695 140.058 33.1514 139.991 33.2258C139.923 33.3002 139.845 33.2667 139.741 33.1737C139.625 33.0769 139.551 33.0286 139.405 32.943C139.074 32.7458 138.835 32.8612 138.496 33.2072C138.183 33.5308 137.929 33.8247 136.554 35.4319L135.287 36.9051C133.971 38.4378 133.725 39.3419 133.878 40.2124C134.019 41.0086 134.467 41.4699 134.828 41.7787C135.294 42.173 135.991 42.5153 136.778 42.4595C137.858 42.3813 138.708 41.4513 139.644 40.3687L140.784 39.0517C142.164 37.4445 142.417 37.1506 142.689 36.8009C142.976 36.4177 143.036 36.1796 142.752 35.8039C142.685 35.7146 142.521 35.5509 142.398 35.443C142.279 35.3463 142.234 35.2682 142.298 35.1975C142.361 35.1231 142.454 35.164 142.596 35.2905C143.14 35.7518 143.774 36.3545 143.785 36.3657C143.912 36.4698 144.605 37.013 145.019 37.3664C145.168 37.4929 145.224 37.5822 145.16 37.6529C145.097 37.731 145.015 37.6938 144.888 37.5859C144.773 37.4855 144.702 37.4408 144.556 37.3553C144.225 37.1618 143.986 37.2734 143.647 37.6194C143.338 37.9393 143.084 38.237 141.705 39.8404L140.729 40.9676C139.722 42.1395 138.533 43.2854 136.994 43.2854C135.689 43.2854 134.828 42.7496 134.139 42.1618C133.58 41.6819 132.588 40.7779 132.417 39.42C132.294 38.4751 132.566 37.3478 133.881 35.8151L135.201 34.2712ZM145.772 44.2043C147.423 42.8836 147.721 42.6343 148.056 42.333C148.407 42.0168 148.511 41.7898 148.295 41.3694C148.247 41.2653 148.109 41.0718 147.986 40.9193C147.892 40.8002 147.859 40.7184 147.933 40.6551C148.012 40.5956 148.094 40.6551 148.224 40.8151C148.69 41.388 149.204 42.1023 149.387 42.3255C149.682 42.6976 150.386 43.49 150.651 43.8285C151.202 44.513 151.724 45.2906 151.799 46.1983C151.836 46.6671 151.631 47.5451 150.904 48.1366C150.099 48.7802 149.093 49.0369 147.318 48.6612C146.882 50.6031 146.517 52.1284 146.36 53.3078C146.219 54.4201 146.502 54.9298 146.595 55.1121C146.674 55.2497 146.737 55.3502 146.811 55.4432C146.882 55.525 146.886 55.5995 146.83 55.6441C146.744 55.7185 146.662 55.6553 146.554 55.525L145.723 54.502C145.231 53.8956 145.067 53.5793 144.996 53.1776C144.87 52.5116 145.048 51.6932 145.391 50.4097C145.637 49.4945 145.973 48.4044 146.029 48.1366C146.051 48.0287 146.003 47.9506 145.947 47.8799L145.209 46.9201C145.164 46.8605 145.123 46.8457 145.052 46.9015L144.899 47.0205C143.889 47.8352 143.032 48.5198 142.622 48.9439C142.335 49.2303 142.149 49.487 142.369 49.8479C142.477 50.0265 142.648 50.2832 142.752 50.4097C142.827 50.4952 142.831 50.5659 142.775 50.6143C142.697 50.6738 142.603 50.6255 142.492 50.4841C141.981 49.8554 141.37 49.022 141.239 48.8583C141.075 48.6537 140.49 48.0027 140.143 47.5637C140.028 47.4223 140.002 47.3219 140.073 47.2586C140.132 47.214 140.196 47.2326 140.304 47.3628C140.43 47.5227 140.557 47.6344 140.661 47.7199C140.881 47.9022 141.165 47.7646 141.515 47.5562C142.018 47.2437 142.872 46.548 143.874 45.7519L145.772 44.2043ZM145.943 46.1723C145.824 46.269 145.798 46.3248 145.827 46.429C145.936 46.7192 146.163 47.0689 146.383 47.3405C146.733 47.772 146.89 47.8799 147.188 47.9617C147.687 48.0919 148.44 48.0101 149.331 47.2884C150.874 46.0495 150.494 44.673 149.98 44.0331C149.76 43.7653 149.592 43.5755 149.473 43.4937C149.391 43.4304 149.331 43.4491 149.242 43.516L145.943 46.1723ZM153.155 54.368C154.982 53.2929 155.317 53.0957 155.69 52.8465C156.078 52.5823 156.219 52.3405 156.122 52.0429C156.078 51.8903 155.999 51.7304 155.914 51.5853C155.839 51.4662 155.828 51.3769 155.917 51.3211C155.996 51.2802 156.07 51.3658 156.186 51.5518C156.454 52.0094 156.864 52.7832 157.069 53.1292C157.244 53.4305 157.699 54.1151 157.967 54.5689C158.057 54.7252 158.09 54.8368 158.023 54.8777C157.93 54.9372 157.863 54.8777 157.792 54.7549C157.721 54.6359 157.651 54.5466 157.55 54.4164C157.3 54.1262 157.032 54.156 156.603 54.3755C156.204 54.5764 155.869 54.7773 154.039 55.8487L151.929 57.0913C150.766 57.7795 149.816 58.3376 149.327 58.691C149.026 58.9179 148.858 59.13 149.022 59.5169C149.1 59.6992 149.231 59.9745 149.335 60.1568C149.413 60.287 149.413 60.3726 149.35 60.4023C149.268 60.4544 149.175 60.3763 149.096 60.2461C148.63 59.4574 148.224 58.6798 148.027 58.3562C147.866 58.0809 147.382 57.348 147.098 56.8681C147.009 56.7118 146.998 56.6076 147.076 56.5593C147.139 56.5258 147.199 56.5518 147.289 56.6932C147.393 56.8755 147.505 57.002 147.594 57.0987C147.784 57.3108 148.027 57.2587 148.399 57.0913C148.94 56.8569 149.883 56.2951 151.053 55.6143L153.155 54.368ZM152.123 63.2223C152.708 61.5072 154.013 60.5772 155.261 60.0601C156.137 59.6955 157.766 59.342 159.414 60.1084C160.647 60.6813 161.665 61.6895 162.459 63.6055C162.791 64.4016 162.936 64.9001 163.107 65.5214C163.242 66.0385 163.301 66.4961 163.42 66.8979C163.465 67.043 163.424 67.1211 163.342 67.1509C163.238 67.1955 163.07 67.2216 162.608 67.3815C162.175 67.5341 161.467 67.8391 161.199 67.9173C161.001 67.9879 160.886 67.9991 160.837 67.8875C160.796 67.7833 160.89 67.7164 161.068 67.6457C161.46 67.4671 161.844 67.11 162.049 66.6524C162.321 66.0422 162.258 64.8964 161.765 63.7134C161.3 62.5973 160.714 61.9797 159.965 61.6263C158.717 61.0459 157.393 61.3063 156.145 61.8235C153.081 63.0884 152.522 66.0422 153.237 67.7647C153.711 68.9143 154.128 69.5505 154.933 69.8258C155.269 69.9374 155.712 69.9522 155.958 69.9076C156.186 69.863 156.242 69.8667 156.29 69.9708C156.327 70.0564 156.245 70.1271 156.145 70.168C155.992 70.2313 154.807 70.5401 154.315 70.5921C154.069 70.6182 153.983 70.5921 153.804 70.4061C153.383 69.982 152.887 69.0408 152.544 68.2149C151.817 66.4515 151.59 64.8108 152.123 63.2223ZM161.296 73.6465C163.365 73.1814 163.745 73.1033 164.17 72.9731C164.628 72.8429 164.822 72.6866 164.818 72.2142C164.818 72.0988 164.781 71.8645 164.74 71.6747C164.706 71.5259 164.714 71.4366 164.811 71.418C164.908 71.3957 164.956 71.485 165.005 71.6896C165.083 72.0579 165.161 72.4523 165.236 72.7908C165.306 73.148 165.359 73.4642 165.4 73.6465C165.497 74.0817 166.104 76.7864 166.175 77.0394C166.261 77.2923 166.335 77.5044 166.391 77.6048C166.421 77.6718 166.477 77.7425 166.492 77.8132C166.507 77.8839 166.454 77.9062 166.391 77.9211C166.298 77.9397 166.119 77.9099 165.482 78.0066C165.34 78.0252 164.736 78.1294 164.568 78.1406C164.494 78.1406 164.412 78.1331 164.39 78.0438C164.367 77.9508 164.431 77.9062 164.55 77.8801C164.643 77.8615 164.874 77.7946 165.019 77.6867C165.243 77.5342 165.377 77.363 165.306 76.671C165.284 76.4367 164.99 75.0044 164.923 74.7328C164.908 74.6658 164.859 74.6509 164.766 74.6695L161.326 75.4434C161.229 75.4657 161.177 75.4917 161.195 75.5699C161.266 75.8712 161.613 77.43 161.717 77.7388C161.814 78.0587 161.903 78.2522 162.067 78.3452C162.198 78.4159 162.276 78.4493 162.295 78.52C162.306 78.5758 162.291 78.6167 162.213 78.6391C162.131 78.6577 161.903 78.6502 161.195 78.7507C160.919 78.8028 160.364 78.8809 160.271 78.9032C160.166 78.9255 160.017 78.9665 159.984 78.8362C159.961 78.7432 160.014 78.7023 160.077 78.6874C160.211 78.6428 160.386 78.6056 160.554 78.5237C160.811 78.3935 160.972 78.1554 160.912 77.6458C160.882 77.3816 160.591 76.0312 160.524 75.7075C160.509 75.6368 160.446 75.6331 160.368 75.6517L159.294 75.8935C158.832 75.9977 157.576 76.2655 157.185 76.366C156.253 76.5966 156.096 76.8645 156.409 78.2522C156.488 78.6056 156.622 79.1748 156.86 79.491C157.103 79.8072 157.427 79.9077 158.008 79.8779C158.165 79.8742 158.225 79.8854 158.243 79.9784C158.266 80.0863 158.161 80.1123 158.02 80.1421C157.706 80.2165 156.76 80.3095 156.469 80.302C156.089 80.2871 156.066 80.1644 155.947 79.6473C155.716 78.6354 155.578 77.8764 155.459 77.2886C155.358 76.7008 155.273 76.2767 155.183 75.8675C155.149 75.7187 155.086 75.4173 154.997 75.0974C154.926 74.7849 154.821 74.4389 154.762 74.1673C154.717 73.9925 154.74 73.8883 154.836 73.866C154.907 73.8511 154.959 73.8957 154.993 74.0594C155.038 74.264 155.101 74.4203 155.157 74.5356C155.273 74.7923 155.586 74.796 155.999 74.7663C156.581 74.703 157.658 74.4649 158.907 74.1859L161.296 73.6465ZM158.731 85.5216C157.643 85.5885 157.289 85.782 157.203 86.0647C157.125 86.3028 157.125 86.5744 157.129 86.7902C157.132 86.9427 157.11 87.0283 157.028 87.0283C156.92 87.032 156.883 86.9092 156.875 86.7158C156.842 85.8118 156.864 85.25 156.857 84.9859C156.853 84.8631 156.786 84.2083 156.767 83.4903C156.76 83.3117 156.771 83.1815 156.89 83.1815C156.972 83.1778 157.006 83.2596 157.009 83.401C157.017 83.5833 157.039 83.8326 157.099 84.0223C157.226 84.3832 157.632 84.4204 158.843 84.398L167.096 84.2344C167.375 84.2232 167.573 84.2604 167.576 84.398C167.58 84.5506 167.405 84.6771 167.166 84.93C166.987 85.1012 164.792 87.2961 162.846 89.3981C161.933 90.3765 159.988 92.3259 159.779 92.5678V92.6422L166.03 92.2776C166.883 92.2329 167.14 92.099 167.267 91.7605C167.345 91.5484 167.334 91.2173 167.327 91.0201C167.323 90.8527 167.36 90.7932 167.442 90.7932C167.554 90.7895 167.573 90.942 167.58 91.1466C167.606 91.8683 167.588 92.5417 167.599 92.8319C167.602 92.9844 167.67 93.5127 167.688 94.1935C167.692 94.3758 167.688 94.5135 167.573 94.5172C167.494 94.5209 167.446 94.4391 167.438 94.2716C167.435 94.1303 167.431 94.0261 167.383 93.8587C167.256 93.4718 166.961 93.3676 166.179 93.3862L157.386 93.5425C157.08 93.5536 156.954 93.5015 156.946 93.3788C156.942 93.2262 157.088 93.0514 157.237 92.8951C158.042 91.9911 159.801 90.1496 161.188 88.6466C162.641 87.0804 164.326 85.4732 164.583 85.2128V85.1719L158.731 85.5216ZM156.86 98.3602C156.991 98.1482 157.069 98.1221 157.371 98.1593C158.128 98.2709 158.951 98.4421 159.164 98.4941C159.369 98.5388 159.514 98.5946 159.499 98.7099C159.484 98.8364 159.358 98.829 159.25 98.8141C159.067 98.7843 158.772 98.8029 158.526 98.8364C157.46 98.9927 156.972 99.7516 156.849 100.607C156.67 101.846 157.423 102.572 158.161 102.683C158.84 102.776 159.499 102.661 160.565 101.653L161.154 101.091C162.559 99.7516 163.599 99.361 164.718 99.5209C166.235 99.7442 167.137 101.162 166.868 103.078C166.738 103.97 166.514 104.536 166.365 104.874C166.32 104.99 166.272 105.057 166.171 105.042C165.992 105.016 165.605 104.904 164.527 104.752C164.222 104.707 164.121 104.651 164.136 104.54C164.151 104.443 164.237 104.413 164.404 104.439C164.527 104.454 164.96 104.447 165.366 104.208C165.657 104.037 166.13 103.699 166.257 102.802C166.406 101.79 165.895 101.08 165.072 100.961C164.438 100.875 163.909 101.117 162.876 102.136L162.53 102.482C161.035 103.963 159.995 104.421 158.687 104.238C157.885 104.127 156.98 103.688 156.473 102.601C156.13 101.85 156.111 101.061 156.223 100.332C156.327 99.5172 156.514 98.9145 156.86 98.3602ZM161.035 110.168C163.074 110.741 163.45 110.849 163.89 110.942C164.356 111.043 164.617 110.976 164.766 110.7C164.848 110.566 164.911 110.395 164.956 110.235C164.997 110.101 165.042 110.027 165.154 110.057C165.232 110.083 165.232 110.194 165.169 110.41C165.023 110.924 164.747 111.749 164.632 112.144C164.542 112.479 164.36 113.278 164.214 113.781C164.162 113.956 164.11 114.056 164.024 114.034C163.92 114 163.916 113.915 163.95 113.781C163.983 113.647 164.006 113.543 164.024 113.371C164.062 112.988 163.86 112.825 163.398 112.665C162.981 112.516 162.604 112.412 160.565 111.835L158.206 111.162C156.905 110.793 155.847 110.496 155.254 110.388C154.881 110.325 154.613 110.351 154.445 110.741C154.367 110.924 154.255 111.21 154.199 111.411C154.158 111.56 154.102 111.616 154.031 111.597C153.938 111.571 153.927 111.452 153.968 111.303C154.214 110.425 154.497 109.588 154.598 109.223C154.68 108.918 154.885 108.063 155.038 107.527C155.086 107.352 155.15 107.274 155.246 107.296C155.314 107.315 155.34 107.378 155.295 107.542C155.235 107.739 155.217 107.91 155.217 108.037C155.194 108.319 155.399 108.464 155.772 108.613C156.316 108.84 157.378 109.138 158.676 109.502L161.035 110.168ZM152.824 115.075C153.003 114.904 153.081 114.897 153.368 115.016C154.069 115.317 154.818 115.708 155.012 115.801C155.202 115.898 155.321 116.002 155.28 116.098C155.232 116.214 155.109 116.177 155.008 116.132C154.844 116.061 154.549 116.002 154.307 115.968C153.237 115.845 152.566 116.444 152.22 117.241C151.72 118.39 152.261 119.287 152.935 119.581C153.562 119.845 154.233 119.915 155.522 119.205L156.234 118.818C157.941 117.888 159.048 117.787 160.084 118.238C161.49 118.844 161.993 120.455 161.225 122.226C160.863 123.059 160.509 123.539 160.271 123.833C160.196 123.937 160.129 123.985 160.04 123.944C159.876 123.866 159.522 123.662 158.526 123.23C158.247 123.111 158.157 123.026 158.206 122.925C158.243 122.843 158.336 122.836 158.493 122.899C158.608 122.947 159.033 123.055 159.481 122.933C159.809 122.851 160.349 122.639 160.711 121.809C161.121 120.864 160.819 120.049 160.051 119.718C159.462 119.465 158.888 119.566 157.624 120.273L157.203 120.511C155.369 121.552 154.251 121.72 153.032 121.199C152.291 120.879 151.53 120.217 151.325 119.041C151.191 118.223 151.389 117.46 151.679 116.787C152.004 116.054 152.343 115.518 152.824 115.075ZM53.2633 157.271C53.1738 157.271 53.0546 157.263 52.8384 157.196C52.6408 157.14 52.5775 156.98 52.5029 156.504L51.7985 151.854C51.7649 151.675 51.6717 151.567 51.5599 151.56C51.4518 151.564 51.3661 151.649 51.3027 151.783L49.2602 155.92L47.225 151.835C47.1281 151.623 47.0387 151.56 46.9269 151.56C46.8188 151.564 46.733 151.668 46.7144 151.806L45.9428 156.72C45.9093 156.969 45.8236 157.245 45.6782 157.248C45.5589 157.263 45.5067 157.263 45.4471 157.263C45.3539 157.263 45.2645 157.308 45.2607 157.401C45.2607 157.52 45.3837 157.55 45.4657 157.55C45.7192 157.55 46.0919 157.52 46.241 157.52C46.3789 157.52 46.733 157.55 47.0648 157.55C47.1729 157.55 47.307 157.531 47.3145 157.401C47.3033 157.3 47.2176 157.267 47.1281 157.263C47.061 157.263 46.9977 157.256 46.8672 157.23C46.7368 157.196 46.6809 157.166 46.6771 157.066C46.6771 156.951 46.6846 156.85 46.7032 156.72L47.0536 153.945C47.3145 154.484 47.7059 155.28 47.7618 155.414C47.8512 155.637 48.47 156.78 48.6601 157.129C48.7868 157.356 48.8613 157.52 49.0291 157.542C49.1782 157.527 49.2192 157.427 49.3981 157.081L51.0083 153.859L51.4145 156.954C51.422 157.021 51.4257 157.073 51.4257 157.114C51.4257 157.2 51.4145 157.196 51.4183 157.204C51.3624 157.226 51.2953 157.26 51.2878 157.341C51.299 157.449 51.3959 157.486 51.5785 157.494C51.8916 157.512 53.0024 157.55 53.2037 157.55C53.3192 157.546 53.4497 157.539 53.4683 157.401C53.4422 157.3 53.3416 157.271 53.2633 157.271ZM59.6333 152.613C58.7611 151.731 57.423 151.739 56.4501 151.739C55.9805 151.739 55.4177 151.754 55.1791 151.754C54.9555 151.754 54.4598 151.739 54.0498 151.739C53.9454 151.739 53.8187 151.746 53.8112 151.869C53.8149 151.977 53.9193 152.014 54.0088 152.014C54.1206 152.014 54.2548 152.021 54.3032 152.036C54.538 152.114 54.5679 152.14 54.5939 152.39C54.6051 152.624 54.6051 152.836 54.6051 153.986V155.306C54.6051 156.006 54.6051 156.594 54.5679 156.906C54.5343 157.133 54.497 157.226 54.3815 157.256C54.3144 157.271 54.2324 157.278 54.1243 157.278C54.0088 157.278 53.9379 157.353 53.9379 157.423C53.9417 157.527 54.046 157.565 54.1541 157.565C54.3144 157.565 54.5119 157.557 54.6983 157.546C54.8884 157.546 55.0599 157.535 55.1419 157.535C55.3357 157.535 55.6152 157.557 55.9246 157.583C56.234 157.602 56.5769 157.628 56.8602 157.628C58.3175 157.628 59.1562 157.088 59.5252 156.724C59.9762 156.281 60.3937 155.552 60.3937 154.581C60.3899 153.658 60.0321 153.015 59.6333 152.613ZM59.1413 154.786C59.1413 155.556 58.9847 156.207 58.5002 156.601C58.0417 156.984 57.5385 157.103 56.8378 157.103C56.234 157.107 55.9432 156.94 55.8687 156.832C55.8277 156.787 55.7941 156.512 55.7904 156.333C55.7792 156.184 55.7681 155.608 55.7681 154.812V153.863C55.7681 153.271 55.768 152.65 55.7792 152.39C55.7904 152.312 55.7792 152.323 55.8389 152.3C55.8724 152.274 56.1445 152.245 56.2973 152.248C56.9049 152.248 57.7361 152.326 58.4368 152.948C58.7685 153.242 59.1413 153.848 59.1413 154.786ZM66.5325 156.009C66.4282 156.006 66.3797 156.102 66.376 156.214C66.3536 156.337 66.2493 156.549 66.1225 156.687C65.8318 157.01 65.4777 157.066 64.7882 157.066C63.7743 157.062 62.4213 156.24 62.4176 154.495C62.4176 153.766 62.5592 153.059 63.1183 152.583C63.4575 152.297 63.875 152.174 64.5496 152.174C65.2541 152.174 65.7684 152.36 66.0144 152.598C66.1971 152.78 66.2903 153.03 66.2977 153.256C66.2977 153.342 66.3126 153.472 66.4431 153.48C66.5773 153.469 66.6034 153.338 66.6108 153.238C66.6183 153.085 66.6183 152.669 66.6369 152.419C66.6518 152.159 66.6742 152.07 66.6742 152.003C66.6816 151.925 66.5996 151.854 66.499 151.854C66.2716 151.824 66.0182 151.772 65.7237 151.727C65.3659 151.683 65.0677 151.649 64.5757 151.649C63.4091 151.649 62.6375 151.958 62.0598 152.468C61.2957 153.152 61.1242 154.053 61.1242 154.573C61.1242 155.31 61.3329 156.192 62.1231 156.843C62.85 157.453 63.7706 157.676 64.8441 157.676C65.3547 157.676 65.9474 157.632 66.2791 157.501C66.417 157.453 66.4915 157.379 66.5214 157.245C66.5996 156.977 66.6891 156.333 66.6891 156.229C66.6816 156.125 66.6481 156.021 66.5325 156.009ZM72.787 156.009C72.6826 156.006 72.6342 156.102 72.6267 156.214C72.6081 156.337 72.5 156.549 72.377 156.687C72.0825 157.01 71.7322 157.066 71.0426 157.066C70.025 157.062 68.672 156.24 68.6683 154.495C68.6683 153.766 68.8099 153.059 69.369 152.583C69.7119 152.297 70.1257 152.174 70.8003 152.174C71.5085 152.174 72.0192 152.36 72.2689 152.598C72.4515 152.78 72.5373 153.03 72.5484 153.256C72.5484 153.342 72.5708 153.472 72.6938 153.48C72.8317 153.469 72.8541 153.338 72.8615 153.238C72.869 153.085 72.869 152.669 72.8913 152.419C72.9063 152.159 72.9249 152.07 72.9286 152.003C72.9323 151.925 72.8503 151.854 72.7534 151.854C72.5223 151.824 72.2726 151.772 71.9782 151.727C71.6166 151.683 71.3184 151.649 70.8301 151.649C69.6598 151.649 68.8882 151.958 68.3105 152.468C67.5464 153.152 67.3749 154.053 67.3749 154.573C67.3749 155.31 67.5836 156.192 68.3776 156.843C69.1007 157.453 70.0213 157.676 71.0948 157.676C71.6054 157.676 72.2018 157.632 72.5298 157.501C72.6677 157.453 72.746 157.379 72.7683 157.245C72.8466 156.977 72.9361 156.333 72.9398 156.229C72.9361 156.125 72.9025 156.021 72.787 156.009ZM79.0414 156.009C78.9408 156.006 78.8886 156.102 78.8811 156.214C78.8588 156.337 78.7544 156.549 78.6351 156.687C78.3407 157.01 77.9866 157.066 77.297 157.066C76.2832 157.062 74.9302 156.24 74.9302 154.495C74.9302 153.766 75.0681 153.059 75.6272 152.583C75.9701 152.297 76.3838 152.174 77.0622 152.174C77.7667 152.174 78.281 152.36 78.5308 152.598C78.7134 152.78 78.8066 153.03 78.8141 153.256C78.8141 153.342 78.8327 153.472 78.9594 153.48C79.0973 153.469 79.1197 153.338 79.1271 153.238C79.1346 153.085 79.1346 152.669 79.1532 152.419C79.1719 152.159 79.1868 152.07 79.1868 152.003C79.1942 151.925 79.116 151.854 79.0153 151.854C78.788 151.824 78.5345 151.772 78.2363 151.727C77.8822 151.683 77.584 151.649 77.092 151.649C75.9217 151.649 75.1501 151.958 74.5686 152.468C73.8045 153.152 73.6331 154.053 73.6331 154.573C73.6331 155.31 73.8455 156.192 74.6357 156.843C75.3588 157.453 76.2795 157.676 77.3529 157.676C77.8673 157.676 78.46 157.632 78.7917 157.501C78.9259 157.453 79.0041 157.379 79.0302 157.245C79.1122 156.977 79.198 156.333 79.2017 156.229C79.1905 156.125 79.157 156.021 79.0414 156.009ZM109.218 157.271C109.147 157.271 109.028 157.263 108.934 157.23C108.774 157.174 108.666 157.111 108.539 156.951C108.357 156.724 107.127 154.789 106.829 154.335L108.096 152.605C108.334 152.274 108.483 152.081 108.625 152.055C108.726 152.029 108.823 152.014 108.89 152.014C108.983 152.014 109.076 151.962 109.08 151.869C109.072 151.754 108.961 151.735 108.871 151.735C108.573 151.735 108.252 151.754 108.107 151.754C107.958 151.754 107.593 151.735 107.287 151.735C107.179 151.735 107.063 151.754 107.056 151.869C107.06 151.973 107.149 152.014 107.216 152.014C107.28 152.014 107.38 152.014 107.447 152.036C107.518 152.051 107.537 152.092 107.537 152.103C107.537 152.152 107.514 152.248 107.455 152.341C107.335 152.538 106.728 153.431 106.456 153.826C106.161 153.335 105.856 152.836 105.531 152.271C105.49 152.196 105.453 152.096 105.453 152.077C105.453 152.07 105.461 152.044 105.517 152.029C105.572 152.014 105.651 152.006 105.688 152.006C105.766 152.006 105.871 151.969 105.874 151.861C105.867 151.746 105.751 151.727 105.651 151.727C105.356 151.727 104.875 151.746 104.771 151.746C104.395 151.746 103.768 151.727 103.582 151.727C103.493 151.731 103.377 151.731 103.358 151.854C103.358 151.932 103.418 152.006 103.5 152.006C103.571 152.006 103.69 152.021 103.809 152.059C104.063 152.14 104.205 152.289 104.406 152.587L105.751 154.685L104.257 156.709C103.988 157.077 103.877 157.174 103.668 157.237C103.563 157.263 103.444 157.271 103.399 157.271C103.31 157.274 103.232 157.338 103.232 157.423C103.232 157.509 103.321 157.557 103.411 157.557H103.545C103.672 157.557 104.055 157.527 104.201 157.527C104.395 157.527 104.905 157.557 104.957 157.557H105.099C105.2 157.557 105.315 157.542 105.323 157.423C105.315 157.33 105.244 157.278 105.162 157.271C105.107 157.271 105.051 157.263 104.995 157.263C104.946 157.263 104.913 157.226 104.913 157.196C104.913 157.193 104.913 157.185 104.913 157.185C104.913 157.129 104.95 157.029 105.017 156.925L106.109 155.239C106.456 155.794 106.858 156.475 107.287 157.174C107.302 157.2 107.306 157.219 107.306 157.226C107.306 157.245 107.298 157.245 107.298 157.245C107.22 157.263 107.145 157.323 107.145 157.405C107.168 157.539 107.287 157.531 107.481 157.546C108.122 157.565 108.744 157.565 108.934 157.565H109.166C109.255 157.565 109.371 157.535 109.386 157.423C109.378 157.326 109.296 157.271 109.218 157.271ZM115.845 157.271C115.778 157.271 115.659 157.263 115.562 157.23C115.401 157.174 115.297 157.111 115.17 156.951C114.988 156.724 113.758 154.789 113.456 154.335L114.727 152.605C114.965 152.274 115.114 152.081 115.252 152.055C115.357 152.029 115.454 152.014 115.521 152.014C115.614 152.014 115.707 151.962 115.707 151.869C115.703 151.754 115.591 151.735 115.502 151.735C115.208 151.735 114.887 151.754 114.738 151.754C114.589 151.754 114.224 151.735 113.922 151.735C113.814 151.735 113.691 151.754 113.691 151.869C113.694 151.973 113.787 152.014 113.851 152.014C113.918 152.014 114.015 152.014 114.082 152.036C114.153 152.051 114.171 152.092 114.168 152.103C114.168 152.152 114.145 152.248 114.089 152.341C113.97 152.538 113.363 153.431 113.087 153.826C112.796 153.331 112.49 152.836 112.166 152.271C112.121 152.196 112.088 152.096 112.092 152.077C112.092 152.07 112.095 152.047 112.151 152.029C112.211 152.014 112.285 152.006 112.326 152.006C112.405 152.006 112.509 151.969 112.513 151.861C112.505 151.746 112.39 151.727 112.285 151.727C111.991 151.727 111.51 151.746 111.413 151.746C111.037 151.746 110.407 151.727 110.224 151.727C110.131 151.731 110.019 151.731 110.001 151.854C110.001 151.932 110.064 152.006 110.138 152.006C110.213 152.006 110.336 152.021 110.448 152.059C110.705 152.14 110.847 152.289 111.044 152.587L112.393 154.685L110.895 156.709C110.63 157.077 110.519 157.174 110.31 157.237C110.202 157.263 110.086 157.271 110.045 157.271C109.952 157.274 109.878 157.338 109.874 157.423C109.874 157.509 109.96 157.557 110.053 157.557H110.187C110.317 157.557 110.698 157.527 110.843 157.527C111.037 157.527 111.547 157.557 111.6 157.557H111.741C111.838 157.557 111.957 157.542 111.965 157.423C111.957 157.33 111.887 157.278 111.805 157.271C111.749 157.271 111.689 157.263 111.637 157.263C111.588 157.263 111.555 157.233 111.551 157.196C111.551 157.193 111.551 157.185 111.551 157.185C111.551 157.129 111.588 157.029 111.655 156.925L112.744 155.239C113.087 155.794 113.493 156.475 113.925 157.174C113.94 157.2 113.944 157.219 113.944 157.226C113.944 157.241 113.937 157.245 113.937 157.245C113.858 157.263 113.784 157.323 113.784 157.405C113.806 157.539 113.925 157.531 114.119 157.546C114.757 157.565 115.379 157.565 115.569 157.565H115.8C115.89 157.565 116.005 157.535 116.016 157.423C116.005 157.326 115.927 157.271 115.845 157.271ZM122.472 157.271C122.401 157.271 122.286 157.263 122.189 157.23C122.029 157.174 121.92 157.111 121.794 156.951C121.611 156.724 120.381 154.789 120.083 154.335L121.354 152.605C121.589 152.274 121.742 152.081 121.879 152.055C121.984 152.029 122.077 152.014 122.148 152.014C122.237 152.014 122.33 151.962 122.334 151.869C122.327 151.754 122.215 151.735 122.129 151.735C121.835 151.735 121.51 151.754 121.365 151.754C121.216 151.754 120.847 151.735 120.545 151.735C120.441 151.735 120.318 151.754 120.314 151.869C120.318 151.973 120.407 152.014 120.474 152.014C120.534 152.014 120.638 152.014 120.702 152.036C120.776 152.051 120.795 152.092 120.791 152.103C120.791 152.152 120.769 152.248 120.713 152.341C120.594 152.538 119.986 153.431 119.71 153.826C119.416 153.335 119.11 152.836 118.786 152.271C118.745 152.196 118.711 152.096 118.711 152.077C118.711 152.07 118.719 152.044 118.771 152.029C118.827 152.014 118.905 152.006 118.942 152.006C119.021 152.006 119.125 151.969 119.129 151.861C119.121 151.746 119.009 151.727 118.905 151.727C118.611 151.727 118.13 151.746 118.025 151.746C117.656 151.746 117.027 151.727 116.844 151.727C116.747 151.731 116.631 151.731 116.617 151.854C116.617 151.932 116.684 152.006 116.758 152.006C116.833 152.006 116.952 152.021 117.068 152.059C117.325 152.14 117.466 152.289 117.66 152.587L119.013 154.685L117.515 156.709C117.246 157.077 117.138 157.174 116.93 157.237C116.822 157.263 116.71 157.271 116.661 157.271C116.575 157.274 116.493 157.338 116.493 157.423C116.493 157.509 116.583 157.557 116.669 157.557H116.803C116.933 157.557 117.317 157.527 117.463 157.527C117.656 157.527 118.163 157.557 118.212 157.557H118.353C118.454 157.557 118.573 157.542 118.581 157.423C118.573 157.33 118.503 157.278 118.421 157.271C118.357 157.271 118.301 157.263 118.253 157.263C118.201 157.263 118.167 157.233 118.163 157.196V157.185C118.163 157.129 118.201 157.029 118.268 156.925L119.36 155.239C119.703 155.794 120.109 156.475 120.534 157.174C120.549 157.2 120.556 157.219 120.556 157.226C120.556 157.241 120.545 157.245 120.545 157.245C120.467 157.263 120.392 157.323 120.392 157.405C120.418 157.539 120.534 157.527 120.731 157.546C121.373 157.565 121.995 157.565 122.181 157.565H122.412C122.506 157.565 122.621 157.535 122.632 157.423C122.629 157.326 122.55 157.271 122.472 157.271ZM126.55 157.271C126.438 157.271 126.259 157.263 126.162 157.245C125.95 157.2 125.935 157.148 125.905 156.947C125.871 156.635 125.871 156.032 125.871 155.31V153.986C125.871 152.836 125.871 152.631 125.886 152.39C125.912 152.133 125.942 152.081 126.121 152.04C126.211 152.021 126.267 152.014 126.345 152.014C126.423 152.014 126.535 151.969 126.535 151.861C126.516 151.739 126.404 151.739 126.308 151.735C126.006 151.735 125.495 151.754 125.301 151.754C125.081 151.754 124.548 151.735 124.254 151.735C124.138 151.739 124.023 151.735 124.008 151.861C124.008 151.969 124.112 152.014 124.198 152.014C124.291 152.014 124.384 152.021 124.463 152.047C124.612 152.103 124.66 152.14 124.686 152.39C124.694 152.624 124.694 152.836 124.694 153.986V155.31C124.694 156.032 124.694 156.634 124.656 156.94C124.623 157.163 124.6 157.211 124.474 157.248C124.407 157.263 124.325 157.271 124.213 157.271C124.097 157.271 124.023 157.345 124.023 157.416C124.026 157.524 124.138 157.557 124.239 157.557C124.552 157.557 125.089 157.527 125.256 157.527C125.465 157.527 126.002 157.557 126.516 157.557C126.609 157.557 126.721 157.527 126.732 157.416C126.74 157.338 126.658 157.271 126.55 157.271ZM131.287 157.271C131.175 157.271 130.996 157.263 130.9 157.245C130.691 157.2 130.676 157.148 130.642 156.947C130.605 156.635 130.605 156.032 130.605 155.31V153.986C130.605 152.836 130.605 152.631 130.624 152.39C130.654 152.133 130.68 152.081 130.862 152.04C130.948 152.021 131.008 152.014 131.082 152.014C131.16 152.014 131.272 151.969 131.272 151.861C131.25 151.739 131.146 151.739 131.045 151.735C130.739 151.735 130.232 151.754 130.039 151.754C129.815 151.754 129.286 151.735 128.991 151.735C128.872 151.739 128.76 151.735 128.741 151.861C128.741 151.969 128.85 152.014 128.928 152.014C129.021 152.014 129.118 152.021 129.192 152.047C129.342 152.103 129.386 152.14 129.416 152.39C129.427 152.624 129.427 152.836 129.427 153.986V155.31C129.427 156.032 129.427 156.634 129.386 156.94C129.353 157.163 129.33 157.211 129.204 157.248C129.137 157.263 129.055 157.271 128.946 157.271C128.831 157.271 128.756 157.345 128.756 157.416C128.76 157.524 128.868 157.557 128.973 157.557C129.286 157.557 129.819 157.527 129.99 157.527C130.203 157.527 130.736 157.557 131.25 157.557C131.343 157.557 131.459 157.527 131.47 157.416C131.474 157.338 131.395 157.271 131.287 157.271ZM136.025 157.271C135.913 157.271 135.738 157.263 135.637 157.245C135.425 157.2 135.41 157.148 135.38 156.947C135.343 156.635 135.343 156.032 135.343 155.31V153.986C135.343 152.836 135.343 152.631 135.361 152.39C135.387 152.133 135.413 152.081 135.596 152.04C135.685 152.021 135.741 152.014 135.82 152.014C135.898 152.014 136.006 151.969 136.006 151.861C135.987 151.739 135.876 151.739 135.782 151.735C135.48 151.735 134.97 151.754 134.776 151.754C134.556 151.754 134.023 151.735 133.729 151.735C133.613 151.739 133.498 151.735 133.483 151.861C133.483 151.969 133.587 152.014 133.669 152.014C133.762 152.014 133.855 152.021 133.934 152.047C134.086 152.103 134.131 152.14 134.157 152.39C134.165 152.624 134.165 152.836 134.165 153.986V155.31C134.165 156.032 134.165 156.634 134.131 156.94C134.098 157.163 134.075 157.211 133.949 157.248C133.878 157.263 133.799 157.271 133.688 157.271C133.572 157.271 133.501 157.345 133.501 157.416C133.505 157.524 133.617 157.557 133.717 157.557C134.031 157.557 134.567 157.527 134.739 157.527C134.947 157.527 135.484 157.557 135.999 157.557C136.088 157.557 136.204 157.527 136.211 157.416C136.211 157.334 136.133 157.271 136.025 157.271ZM89.1014 120.816V116.396C89.1014 115.57 88.4305 114.901 87.6031 114.901C86.7756 114.901 86.1047 115.578 86.1047 116.396V120.816H89.1014ZM97.2158 120.816V116.396C97.2158 115.57 96.5449 114.901 95.7212 114.901C94.8862 114.901 94.2191 115.578 94.2191 116.396V120.816H97.2158ZM91.6584 31.9088C90.7936 31.9088 90.0855 32.6119 90.0855 33.4787C90.0855 34.3456 90.7899 35.0487 91.6584 35.0487C92.5268 35.0487 93.235 34.3493 93.235 33.4787C93.2313 32.6119 92.5268 31.9088 91.6584 31.9088ZM90.8645 75.7224H92.4523V72.3183H90.8645V75.7224ZM75.8098 161.616C74.9451 161.616 74.2369 162.315 74.2369 163.186C74.2369 164.056 74.9414 164.756 75.8098 164.756C76.6783 164.756 77.3865 164.056 77.3865 163.186C77.3865 162.315 76.6783 161.616 75.8098 161.616ZM74.8556 75.7819V70.7781C74.8445 69.6063 74.2667 68.7952 73.402 68.4158C72.541 68.7952 71.9632 69.6025 71.9521 70.7819V75.7819H74.8556ZM74.8556 59.7066V56.4774C74.8445 55.3055 74.2667 54.4908 73.402 54.1076C72.541 54.4945 71.9632 55.3018 71.9521 56.4774V59.7029H74.8556V59.7066ZM74.1773 93.1556V88.9628C74.1773 88.5313 73.8306 88.1853 73.3983 88.1853C72.9659 88.1853 72.6192 88.5313 72.6192 88.9628V93.1556H74.1773ZM74.1773 105.775V101.586C74.1773 101.154 73.8306 100.801 73.3983 100.801C72.9659 100.801 72.6192 101.154 72.6192 101.586V105.775H74.1773ZM74.6357 119.875V116.154C74.6357 115.455 74.0729 114.893 73.3759 114.893C72.6752 114.893 72.1161 115.455 72.1161 116.154V119.875H74.6357ZM73.402 14.5463C72.5335 14.5463 71.8291 15.2494 71.8291 16.1162C71.8291 16.9831 72.5298 17.6862 73.402 17.6862C74.2667 17.6862 74.9749 16.9868 74.9749 16.1162C74.9749 15.2494 74.2705 14.5463 73.402 14.5463ZM111.35 75.7819V70.7781C111.342 69.6063 110.761 68.7952 109.9 68.4158C109.039 68.7952 108.457 69.6025 108.45 70.7819V75.7819H111.35ZM111.35 59.7066V56.4774C111.342 55.3055 110.761 54.4908 109.9 54.1076C109.039 54.4945 108.457 55.3018 108.45 56.4774V59.7029H111.35V59.7066ZM110.675 93.1556V88.9628C110.675 88.5313 110.325 88.1853 109.896 88.1853C109.468 88.1853 109.117 88.5313 109.117 88.9628V93.1556H110.675ZM110.675 105.775V101.586C110.675 101.154 110.325 100.801 109.896 100.801C109.468 100.801 109.117 101.154 109.117 101.586V105.775H110.675ZM111.134 119.875V116.154C111.134 115.455 110.571 114.893 109.874 114.893C109.173 114.893 108.614 115.455 108.614 116.154V119.875H111.134ZM109.896 14.5463C109.028 14.5463 108.323 15.2494 108.323 16.1162C108.323 16.9831 109.024 17.6862 109.896 17.6862C110.761 17.6862 111.469 16.9868 111.469 16.1162C111.473 15.2494 110.768 14.5463 109.896 14.5463ZM225.905 81.3288C211.6 81.3288 208.376 73.5535 208.376 64.9038V35.3389H217.105V64.3681C217.105 70.0676 218.987 74.0892 226.509 74.0892C233.226 74.0892 236.047 71.2729 236.047 63.5645V35.3389H244.713V63.0251C244.713 75.4285 237.859 81.3288 225.905 81.3288ZM274.532 80.5922V59.2788C274.532 55.7892 273.589 53.7133 270.432 53.7133C266.063 53.7133 262.638 58.6761 262.638 64.5058V80.5959H254.039V47.2772H262.168C262.168 48.8211 262.038 51.4327 261.699 53.1776L261.769 53.2482C263.786 49.2936 267.681 46.5406 273.123 46.5406C280.645 46.5406 283.06 51.3695 283.06 57.1992V80.5959L274.532 80.5922ZM296.698 42.9803C293.742 42.9803 291.39 40.6328 291.39 37.7533C291.39 34.9371 293.742 32.5859 296.698 32.5859C299.654 32.5859 302.065 34.8664 302.065 37.7533C302.069 40.6365 299.654 42.9803 296.698 42.9803ZM292.397 80.5922V47.2735H300.996V80.5922H292.397ZM326.923 80.5922H318.19L305.837 47.2735H315.234L320.542 62.2885C321.347 64.569 322.159 67.2513 322.763 69.6621H322.894C323.434 67.3853 324.101 64.8332 324.906 62.5563L330.278 47.2735H339.413L326.923 80.5922ZM370.108 65.3094H349.417C349.35 71.5445 352.444 74.5542 358.62 74.5542C361.915 74.5542 365.475 73.8176 368.36 72.4746L369.165 79.1115C365.605 80.5178 361.374 81.2544 357.211 81.2544C346.596 81.2544 340.688 75.9605 340.688 64.2305C340.688 54.0407 346.331 46.5294 356.335 46.5294C366.067 46.5294 370.376 53.1664 370.376 61.4105C370.376 62.5564 370.309 63.8994 370.108 65.3094ZM356.067 52.839C352.507 52.839 350.021 55.4544 349.551 59.476H361.844C361.978 55.3167 359.697 52.839 356.067 52.839ZM395.427 54.9819C389.251 53.7058 386.165 57.7312 386.165 66.9835V80.5922H377.562V47.2735H385.692C385.692 48.9476 385.487 51.6299 385.088 53.9774H385.222C386.836 49.7549 390.06 46.0681 395.837 46.5369L395.427 54.9819ZM407.179 81.2619C404.768 81.2619 402.341 80.9977 400.195 80.6629L400.4 73.6204C402.483 74.1599 405.029 74.6286 407.589 74.6286C410.881 74.6286 413.028 73.2856 413.028 71.072C413.028 65.1754 399.531 68.5199 399.531 57.1954C399.531 51.3658 404.295 46.5369 413.702 46.5369C415.648 46.5369 417.802 46.8047 419.815 47.1396L419.554 53.9104C417.672 53.3673 415.45 53.0399 413.374 53.0399C410.016 53.0399 408.406 54.3792 408.406 56.4588C408.406 61.8904 422.107 59.4797 422.107 70.2722C422.093 76.8385 416.315 81.2619 407.179 81.2619ZM433.711 42.9803C430.755 42.9803 428.403 40.6328 428.403 37.7533C428.403 34.9371 430.755 32.5859 433.711 32.5859C436.666 32.5859 439.078 34.8664 439.078 37.7533C439.082 40.6365 436.666 42.9803 433.711 42.9803ZM429.413 80.5922V47.2735H438.016V80.5922H429.413ZM459.764 81.2619C452.377 81.2619 450.025 78.5795 450.025 70.8042V53.9104H444.318V47.2735H450.025V37.0167L458.624 34.7362V47.2735H466.757V53.9104H458.624V68.5237C458.624 72.8131 459.634 74.0259 462.586 74.0259C463.995 74.0259 465.542 73.8213 466.749 73.4865V80.3913C464.595 80.927 462.113 81.2619 459.764 81.2619ZM492.863 80.5922C492.863 78.654 492.934 76.7045 493.202 74.9597L493.131 74.889C491.514 78.6465 487.425 81.2581 482.453 81.2581C476.411 81.2581 472.911 77.8392 472.911 72.4783C472.911 64.4983 480.835 60.2795 492.188 60.2795V58.4678C492.188 54.9819 490.511 53.1738 485.677 53.1738C482.65 53.1738 478.617 54.182 475.803 55.7892L475.065 48.6165C478.423 47.4111 482.729 46.5332 487.022 46.5332C497.772 46.5332 500.791 50.8933 500.791 58.133V72.0096C500.791 74.6919 500.858 77.8392 500.992 80.5922H492.863ZM481.047 41.7787C478.487 41.7787 476.414 39.6953 476.414 37.1506C476.414 34.5353 478.494 32.5226 481.047 32.5226C483.601 32.5226 485.681 34.5353 485.681 37.1506C485.681 39.6953 483.597 41.7787 481.047 41.7787ZM492.196 65.8451C483.127 65.8451 481.111 68.4604 481.111 71.139C481.111 73.2856 482.587 74.6919 485.073 74.6919C489.304 74.6919 492.188 70.6703 492.188 66.6486L492.196 65.8451ZM494.611 41.7787C492.058 41.7787 489.978 39.6953 489.978 37.1506C489.978 34.5353 492.065 32.5226 494.611 32.5226C497.157 32.5226 499.248 34.5353 499.248 37.1506C499.248 39.6953 497.164 41.7787 494.611 41.7787ZM522.007 81.2619C514.623 81.2619 512.271 78.5795 512.271 70.8042V53.9104H506.565V47.2735H512.271V37.0167L520.87 34.7362V47.2735H528.999V53.9104H520.87V68.5237C520.87 72.8131 521.88 74.0259 524.832 74.0259C526.245 74.0259 527.788 73.8213 528.992 73.4865V80.3913C526.841 80.927 524.359 81.2619 522.007 81.2619ZM206.695 151.426V144.722L223.016 118.171C223.956 116.63 224.895 115.291 225.972 113.881C224.358 113.952 222.211 114.015 217.709 114.015H207.231V106.173H236.513V113.145L219.252 140.362C218.581 141.433 217.977 142.442 217.172 143.517C218.313 143.383 221.403 143.383 226.979 143.383H236.785V151.426H206.695ZM264.576 151.426C264.576 149.886 264.643 147.271 264.975 145.526L264.908 145.459C262.891 149.41 259.067 152.163 253.558 152.163C246.029 152.163 243.617 147.334 243.617 141.504V118.107H252.149V139.425C252.149 142.91 253.088 144.99 256.313 144.99C260.677 144.99 264.032 140.027 264.032 134.198V118.107H272.635V151.426H264.576ZM250.942 112.613C248.388 112.613 246.309 110.529 246.309 107.985C246.309 105.373 248.396 103.36 250.942 103.36C253.495 103.36 255.578 105.373 255.578 107.985C255.575 110.533 253.495 112.613 250.942 112.613ZM264.509 112.613C261.956 112.613 259.876 110.529 259.876 107.985C259.876 105.373 261.96 103.36 264.509 103.36C267.066 103.36 269.142 105.373 269.142 107.985C269.142 110.533 267.062 112.613 264.509 112.613ZM299.769 125.816C293.597 124.54 290.507 128.565 290.507 137.817V151.426H281.904V118.107H290.037C290.037 119.782 289.832 122.464 289.434 124.811H289.568C291.178 120.589 294.402 116.902 300.179 117.371L299.769 125.816ZM310.683 113.818C307.727 113.818 305.375 111.47 305.375 108.591C305.375 105.778 307.727 103.427 310.683 103.427C313.639 103.427 316.05 105.704 316.05 108.591C316.054 111.47 313.635 113.818 310.683 113.818ZM306.382 151.426V118.107H314.981V151.426H306.382ZM336.308 152.029C327.042 152.029 321.265 147.204 321.265 135.872C321.265 125.481 326.707 117.501 338.53 117.501C340.811 117.501 343.23 117.836 345.381 118.439L344.512 125.883C342.701 125.209 340.613 124.674 338.466 124.674C333.025 124.674 330.274 128.695 330.274 134.997C330.274 140.693 332.492 144.585 338.198 144.585C340.479 144.585 342.965 144.112 344.784 143.175L345.459 150.485C343.159 151.363 339.868 152.029 336.308 152.029ZM372.646 151.426V130.113C372.646 126.623 371.707 124.547 368.546 124.547C364.177 124.547 360.752 129.51 360.752 135.336V151.426H352.153V102.486H360.752V116.768C360.752 118.781 360.618 121.597 360.148 123.539L360.282 123.61C362.228 119.852 366.06 117.371 371.233 117.371C378.755 117.371 381.174 122.203 381.174 128.029V151.426H372.646ZM394.473 119.856C389.027 119.856 387.715 116.924 387.715 113.509V102.453H391.67V113.278C391.67 115.276 392.304 116.541 394.734 116.541C396.967 116.541 397.828 115.604 397.828 113.052V102.449H401.73V112.821C401.723 117.631 399.013 119.856 394.473 119.856ZM405.018 119.529V116.441L410.523 107.259C410.795 106.805 411.101 106.374 411.429 105.942C410.981 105.968 410.396 105.994 408.741 105.994H405.197V102.453H416.274V105.663L410.467 114.971C410.262 115.302 410.068 115.581 409.807 115.935C410.139 115.883 411.101 115.883 413.128 115.883H416.371V119.525L405.018 119.529ZM430.211 119.529V112.419H423.949V119.529H419.994V102.453H423.949V109.008H430.211V102.453H434.169V119.529H430.211ZM1.85986 91.4889C1.85986 41.9907 42.0627 1.86389 91.6547 1.86389C141.25 1.86389 181.453 41.9907 181.453 91.4889C181.453 140.991 141.25 181.118 91.6547 181.118C42.0627 181.114 1.85986 140.987 1.85986 91.4889ZM29.729 29.6803C13.8805 45.5026 4.07762 67.3481 4.07762 91.4889C4.07762 115.63 13.8767 137.475 29.729 153.297C45.5813 169.116 67.4681 178.897 91.6509 178.897C115.837 178.897 137.724 169.116 153.577 153.297C169.425 137.475 179.228 115.63 179.228 91.4889C179.228 67.3518 169.429 45.5064 153.577 29.6841C137.728 13.858 115.841 4.07373 91.6547 4.07373C67.4681 4.07373 45.5813 13.858 29.729 29.6803ZM93.0151 147.817H93.7382V146.553H92.0162V149.354H93.0189L93.0151 147.817ZM91.6547 7.69727C45.3017 7.69727 7.73039 45.2013 7.73039 91.4628C7.73039 137.732 45.3055 175.236 91.6547 175.236C138.008 175.236 175.579 137.732 175.583 91.4628C175.575 45.2013 138.004 7.69727 91.6547 7.69727ZM82.3625 162.542H78.5569V163.807H82.3625V173.219C63.3084 171.088 46.2224 162.472 33.3631 149.64C31.5181 147.799 29.7588 145.864 28.0927 143.855C28.4319 141.813 30.1987 140.258 32.3456 140.258C34.7273 140.258 36.6506 142.185 36.6506 144.559V148.688H42.1223V148.662V144.555C42.1223 142.174 44.0568 140.254 46.4311 140.254C48.8129 140.254 50.7436 142.181 50.7436 144.555V148.684H56.2153V148.658V144.551C56.2153 142.17 58.1498 140.25 60.5241 140.25C62.8984 140.25 64.8366 142.178 64.8366 144.551V148.681H70.3083V148.655V144.547C70.3083 142.166 72.2391 140.247 74.6208 140.247C77.0026 140.247 78.9259 142.174 78.9259 144.547V148.677H82.3625V162.542ZM98.0023 173.498C95.9075 173.662 93.7904 173.74 91.6547 173.74C89.5264 173.74 87.4055 173.662 85.3182 173.506L83.7602 163.811H85.553C85.1058 162.747 84.3268 160.887 84.0286 160.132C83.544 158.919 83.9093 158.115 84.7181 157.803C85.5046 157.498 86.3917 157.929 86.6675 158.963L87.454 161.91H88.6057V163.811V164.19H85.8885V165.459H89.8618L89.8655 163.818H94.685L94.6812 161.917H95.8367L96.6306 158.971C96.9102 157.937 97.8047 157.498 98.5987 157.81C99.4112 158.123 99.7728 158.926 99.2919 160.139C99.1615 160.47 98.9453 161.013 98.7179 161.612L97.6445 164.198H94.7446V165.466H98.4906L99.1764 163.826H99.564L98.0023 173.498ZM89.0455 145.779H94.2638C94.4688 146.259 94.9645 147.468 95.2739 148.171C95.4863 148.658 95.7584 149.179 95.4267 149.719C95.0316 150.355 94.5135 150.262 94.152 150.236C94.1296 150.232 94.1072 150.236 94.0849 150.232C93.7196 151.233 92.7729 151.94 91.6509 151.94C90.529 151.94 89.5823 151.233 89.2207 150.232C89.2021 150.236 89.1723 150.232 89.1536 150.236C88.7884 150.269 88.2777 150.355 87.8789 149.719C87.5472 149.179 87.8192 148.658 88.0317 148.171C88.3485 147.468 88.8443 146.255 89.0455 145.779ZM88.2591 140.369L89.9252 142.754L91.6323 139.521L93.3394 142.754L95.0092 140.369L94.3458 144.503H88.9188L88.2591 140.369ZM90.2532 152.073C90.6446 153.163 91.6882 153.948 92.9182 153.948C94.2451 153.948 95.3559 153.03 95.6615 151.791C96.489 151.835 97.309 152.07 98.1253 152.762C98.9117 153.42 99.2174 154.547 99.3292 155.113H83.9876C84.0957 154.555 84.405 153.42 85.1915 152.762C86.8725 151.348 88.5871 151.809 90.2532 152.073ZM96.5859 156.374C96.0082 158.554 94.0215 160.165 91.6584 160.165C89.2953 160.165 87.3086 158.554 86.7346 156.374H96.5859ZM149.942 149.644C137.083 162.475 120.001 171.088 100.947 173.219V163.807H104.432C110.884 163.807 115.55 163.264 115.55 163.264C115.55 163.264 110.746 162.542 104.432 162.542H100.947V148.699H105.11V148.673V144.566C105.11 142.185 107.045 140.265 109.423 140.265C111.801 140.265 113.735 142.196 113.735 144.566V148.695H119.203V148.669V144.562C119.203 142.181 121.134 140.262 123.512 140.262C125.89 140.262 127.817 142.192 127.817 144.562V148.692H133.293V148.666V144.559C133.293 142.178 135.223 140.258 137.601 140.258C139.987 140.258 141.91 142.189 141.91 144.559V148.688H147.382V148.662V144.555C147.382 142.174 149.316 140.254 151.694 140.254C153.58 140.254 155.187 141.467 155.765 143.156C153.946 145.425 152 147.591 149.942 149.644ZM156.696 142.018C155.738 140.005 153.685 138.61 151.31 138.61C148.012 138.61 145.339 141.281 145.339 144.573V146.497H143.181V144.573C143.181 141.281 140.509 138.61 137.214 138.61C133.919 138.61 131.243 141.281 131.243 144.573V146.497H129.081V144.573C129.081 141.281 126.408 138.61 123.113 138.61C119.818 138.61 117.146 141.281 117.146 144.573V146.497H114.984V144.573C114.984 141.281 112.308 138.61 109.013 138.61C105.718 138.61 103.045 141.281 103.045 144.573V146.497H100.816C100.138 142.04 96.2952 138.617 91.6397 138.617C86.9843 138.617 83.1452 142.04 82.4631 146.497H80.1745V144.573C80.1745 141.281 77.4983 138.61 74.2034 138.61C70.9084 138.61 68.2359 141.281 68.2359 144.573V146.497H66.0741V144.573C66.0741 141.281 63.4053 138.61 60.1029 138.61C56.808 138.61 54.1355 141.281 54.1355 144.573V146.497H51.9736V144.573C51.9736 141.281 49.3012 138.61 46.0062 138.61C42.7075 138.61 40.035 141.281 40.035 144.573V146.497H37.9105V144.573C37.9105 141.281 35.238 138.61 31.943 138.61C29.5799 138.61 27.5411 139.983 26.5757 141.969C25.122 140.105 23.7504 138.175 22.4607 136.188H160.852C159.548 138.193 158.165 140.139 156.696 142.018ZM162.235 133.989H21.0742C20.6642 133.308 20.2654 132.628 19.874 131.932H163.439C163.04 132.624 162.645 133.312 162.235 133.989ZM77.4312 28.2369V28.9326C77.4126 29.0702 77.3753 29.2748 77.3045 29.4683C77.1852 29.7845 76.8908 30.2905 76.4957 30.9043C76.3466 31.1424 76.0857 31.5516 75.7949 32.132C75.4185 31.5591 75.1016 31.1796 74.878 30.9452C74.632 30.6848 74.304 30.35 74.0282 30.03C73.443 29.3344 73.4094 28.9214 73.4094 28.9214C73.4094 28.9214 73.3908 29.3306 72.8019 30.0263C72.5298 30.3425 72.2018 30.6774 71.9521 30.9415C71.721 31.1759 71.4041 31.5628 71.0202 32.1506C70.722 31.5516 70.4574 31.1387 70.3046 30.882C69.9132 30.2681 69.615 29.7659 69.4958 29.4497C69.3839 29.1483 69.3429 28.8024 69.3392 28.7652V28.2369H77.4312ZM69.3578 26.972C69.4212 25.9415 69.7008 23.9772 70.7071 22.6416C71.4675 21.6074 72.2242 20.9935 72.7833 20.6326C73.0367 20.4652 73.2417 20.3648 73.3871 20.2941C73.5362 20.3685 73.7412 20.4652 73.9984 20.6326C74.5463 20.9935 75.3104 21.6074 76.0745 22.6416C77.0846 23.9772 77.3604 25.9415 77.4238 26.972H69.3578ZM77.7257 31.5814C77.9568 31.8976 78.1916 32.3589 78.4488 32.917C78.8066 33.7838 78.8998 34.6357 78.911 35.2607V44.5317H76.518C76.518 42.4929 76.518 37.9989 76.518 35.2645C76.5255 34.6283 76.641 33.7429 76.9802 32.9133C77.2784 32.2585 77.5095 31.8865 77.7257 31.5814ZM75.2209 35.324L75.2172 44.5354H71.5868C71.5868 41.9721 71.5831 35.3203 71.5831 35.3165C71.6129 34.7139 71.6613 33.8805 72.0974 33.0211C72.5522 32.1208 73.4169 31.5851 73.4169 31.5851C73.4169 31.5851 74.2369 32.1208 74.6954 33.0211C75.1538 33.9252 75.1948 34.7064 75.2209 35.324ZM69.8648 32.9021C70.204 33.7354 70.2599 34.632 70.271 35.2682L70.2822 44.5354H67.9191V35.2533C67.9303 34.6283 67.9974 33.7801 68.3515 32.9058C68.6124 32.3515 68.8658 31.8902 69.0783 31.574C69.3467 31.9646 69.6039 32.3441 69.8648 32.9021ZM80.7448 46.0495V49.0518H66.0554V46.0495H80.7448ZM80.7448 50.3092V61.9946H77.1889V56.7379C77.1927 54.993 76.5441 53.5161 75.4781 52.5042C74.9078 51.9573 74.2183 51.5444 73.4579 51.2839C73.4094 51.2691 73.4132 51.2653 73.4132 51.2653C73.4132 51.2653 73.4057 51.2653 73.3573 51.2839C72.5969 51.5444 71.9036 51.9573 71.3333 52.5042C70.2673 53.5124 69.6225 54.993 69.6262 56.7379V61.9983H66.0554V50.3129L80.7448 50.3092ZM75.9217 56.7379V61.9983H70.8898V56.7379C70.9084 54.7066 71.9036 53.2966 73.4057 52.6344C74.9004 53.2929 75.903 54.7029 75.9217 56.7379ZM80.7448 63.2595V78.122H77.4797V70.7C77.4797 68.9589 76.8237 67.4448 75.7278 66.4031C75.1426 65.8451 74.4456 65.4247 73.6778 65.1643C73.6368 65.1457 73.402 65.075 73.402 65.075C73.402 65.075 73.1709 65.1494 73.1523 65.1568C72.3807 65.4172 71.6762 65.8451 71.0836 66.4031C69.9878 67.4411 69.328 68.9627 69.3318 70.6963V78.1182H66.0517V63.2558L80.7448 63.2595ZM76.2124 70.7112V78.122H70.5953V70.7C70.5953 69.2714 71.1209 68.1182 71.9521 67.3183C72.3621 66.9277 72.8503 66.63 73.402 66.4217C73.9499 66.6375 74.4345 66.9277 74.8482 67.3146C75.6906 68.1144 76.2049 69.2677 76.2087 70.7L76.2124 70.7112ZM80.7448 79.3868V97.0767H66.0554V79.3868H80.7448ZM80.7448 98.3416V109.886H66.0554V98.3416H80.7448ZM80.7448 111.147V130.667H66.0554V111.147H80.7448ZM93.6786 63.3897V68.6576L91.6584 66.6412L89.6419 68.6539V63.3897H93.6786ZM89.6978 61.8718L91.1738 55.5697L91.7814 45.0227L92.1467 55.5622L93.6227 61.8718H89.6978ZM91.6584 68.7841L101.018 78.122H82.3028L91.6584 68.7841ZM101.018 79.3868V86.5335H82.2432V79.3868H101.018ZM101.018 88.747V97.073H95.1472V94.9859C95.1472 93.0663 93.5854 91.4963 91.6509 91.4963C89.7239 91.4963 88.1584 93.0626 88.1584 94.9859V97.073H82.2357V88.747H101.018ZM88.1659 98.3416V105.775H95.1472V98.3416H101.018V109.886H82.2432V98.3416H88.1659ZM101.018 111.147V130.667H82.2432V111.147H101.018ZM113.929 28.2369V28.9326C113.91 29.0739 113.866 29.2786 113.799 29.472C113.679 29.7845 113.385 30.2867 112.99 30.9006C112.841 31.1387 112.58 31.5479 112.289 32.1283C111.913 31.5591 111.596 31.1759 111.372 30.9452C111.13 30.6848 110.798 30.35 110.522 30.03C109.933 29.3344 109.904 28.9214 109.904 28.9214C109.904 28.9214 109.885 29.3306 109.296 30.0263C109.024 30.3425 108.696 30.6774 108.446 30.9415C108.215 31.1759 107.898 31.5628 107.514 32.1506C107.216 31.5516 106.952 31.1387 106.799 30.882C106.407 30.2681 106.109 29.7659 105.99 29.4497C105.874 29.1446 105.837 28.7912 105.833 28.7614V28.2369H113.929ZM105.856 26.972C105.919 25.9415 106.199 23.9772 107.205 22.6416C107.965 21.6074 108.722 20.9935 109.281 20.6326C109.535 20.4652 109.736 20.3648 109.885 20.2941C110.034 20.3685 110.239 20.4652 110.493 20.6326C111.04 20.9935 111.805 21.6074 112.569 22.6416C113.579 23.9772 113.855 25.9415 113.918 26.972H105.856ZM114.224 31.5814C114.451 31.8976 114.689 32.3589 114.943 32.917C115.301 33.7838 115.394 34.6357 115.405 35.2607V44.5317H113.012C113.012 42.4929 113.012 37.9989 113.012 35.2645C113.023 34.6283 113.135 33.7429 113.478 32.9133C113.773 32.2585 114.007 31.8865 114.224 31.5814ZM111.715 35.324L111.711 44.5354H108.088C108.088 41.9721 108.085 35.3203 108.085 35.3165C108.114 34.7139 108.163 33.8805 108.599 33.0211C109.054 32.1208 109.919 31.5851 109.919 31.5851H109.922C109.922 31.5851 110.739 32.1208 111.197 33.0211C111.648 33.9252 111.689 34.7064 111.715 35.324ZM106.359 32.9021C106.698 33.7354 106.754 34.632 106.765 35.2682L106.776 44.5354H104.41V35.2533C104.424 34.6283 104.488 33.7801 104.842 32.9058C105.103 32.3515 105.356 31.8902 105.565 31.574C105.845 31.9646 106.098 32.3441 106.359 32.9021ZM117.243 46.0495V49.0518H102.553V46.0495H117.243ZM117.243 50.3092V61.9946H113.687V56.7379C113.687 54.993 113.042 53.5161 111.976 52.5042C111.406 51.9573 110.712 51.5444 109.952 51.2839C109.904 51.2691 109.907 51.2653 109.907 51.2653C109.907 51.2653 109.9 51.2653 109.851 51.2839C109.091 51.5444 108.398 51.9573 107.827 52.5042C106.761 53.5124 106.117 54.993 106.117 56.7379V61.9983H102.546V50.3129L117.243 50.3092ZM112.42 56.7379V61.9983H107.384V56.7379C107.403 54.7066 108.398 53.2966 109.9 52.6344C111.398 53.2929 112.401 54.7029 112.42 56.7379ZM117.243 63.2595V78.122H113.978V70.7C113.978 68.9589 113.322 67.4448 112.226 66.4031C111.641 65.8451 110.944 65.4247 110.176 65.1643C110.138 65.1457 109.9 65.075 109.9 65.075C109.9 65.075 109.669 65.1494 109.646 65.1568C108.875 65.4172 108.17 65.8451 107.578 66.4031C106.482 67.4411 105.826 68.9627 105.826 70.6963V78.1182H102.546V63.2558L117.243 63.2595ZM112.71 70.7112V78.122H107.097V70.7C107.097 69.2714 107.622 68.1182 108.454 67.3183C108.864 66.9277 109.352 66.63 109.9 66.4217C110.448 66.6375 110.936 66.9277 111.35 67.3146C112.188 68.1144 112.707 69.2677 112.71 70.7V70.7112ZM117.243 79.3868V97.0767H102.553V79.3868H117.243ZM117.243 98.3416V109.886H102.553V98.3416H117.243ZM117.243 111.147V130.667H102.553V111.147H117.243ZM119.501 130.667V44.5317H117.649V35.0375C117.63 33.8582 117.459 33.1067 116.937 31.8976C116.803 31.5926 116.613 31.2577 116.397 30.9229V27.4928C116.397 27.4928 116.393 24.7956 115.278 22.7681C114.067 20.5545 111.715 19.3454 110.567 18.8655C110.306 18.7428 110.131 18.6869 110.097 18.6795L109.907 18.6088L109.673 18.6795C109.561 18.713 107.701 19.3008 105.93 21.7004C104.328 23.9065 104.275 26.7376 104.26 27.5151C104.26 27.6416 104.264 27.716 104.264 27.7272V30.8931C104.048 31.2056 103.75 31.6781 103.422 32.3738C102.93 33.5792 102.896 34.6953 102.878 35.3649V44.5354H101.014V75.9791L95.915 70.8935V61.9165L94.1855 56.1203L91.6509 36.2503L89.7835 55.2869L88.0466 61.9165V70.2275L82.9998 75.2685V44.5205H81.1474V35.0375C81.1287 33.8582 80.9573 33.1067 80.4317 31.8976C80.3013 31.5926 80.1074 31.2577 79.895 30.9229V27.4928C79.895 27.4928 79.8912 24.7956 78.7768 22.7681C77.5617 20.5545 75.2097 19.3454 74.0654 18.8655C73.8045 18.7428 73.6294 18.6869 73.5958 18.6795L73.4057 18.6088L73.1709 18.6795C73.0553 18.713 71.1991 19.3008 69.4249 21.7004C67.8222 23.9065 67.77 26.7376 67.7551 27.5151C67.7551 27.6416 67.7551 27.716 67.7551 27.7272V30.8931C67.5389 31.2056 67.2407 31.6781 66.9127 32.3738C66.4244 33.5792 66.3872 34.6953 66.3723 35.3649V44.5354H64.5086V130.663H19.177C12.8331 119.008 9.21759 105.659 9.21759 91.4591C9.21759 68.7432 18.4427 48.1738 33.3594 33.2778C48.2799 18.3893 68.8845 9.17422 91.6509 9.17422C114.417 9.17422 135.026 18.3856 149.946 33.2778C164.863 48.1701 174.092 68.7357 174.092 91.4591C174.092 105.659 170.476 119.008 164.132 130.663L119.501 130.667Z" fill="white"/>
</svg>
