<svg width="1024" height="1024" viewBox="0 0 1024 1024" fill="none" xmlns="http://www.w3.org/2000/svg">
<path d="M380 82H644C699.386 82 739.743 82.015 771.564 84.5721C803.156 87.1109 824.599 92.0591 842.456 100.982C877.325 118.405 905.595 146.675 923.018 181.544C931.941 199.401 936.889 220.844 939.428 252.436C941.985 284.257 942 324.614 942 380V644C942 699.386 941.985 739.743 939.428 771.564C936.889 803.156 931.941 824.599 923.018 842.456C905.595 877.325 877.325 905.595 842.456 923.018C824.599 931.941 803.156 936.889 771.564 939.428C739.743 941.985 699.386 942 644 942H380C324.614 942 284.257 941.985 252.436 939.428C220.844 936.889 199.401 931.941 181.544 923.018C146.675 905.595 118.405 877.325 100.982 842.456C92.0591 824.599 87.1109 803.156 84.5721 771.564C82.015 739.743 82 699.386 82 644V380C82 324.614 82.015 284.257 84.5721 252.436C87.1109 220.844 92.0591 199.401 100.982 181.544C118.405 146.675 146.675 118.405 181.544 100.982C199.401 92.0591 220.844 87.1109 252.436 84.5721C284.257 82.015 324.614 82 380 82Z" fill="white" stroke="white" stroke-width="40"/>
<path d="M424.48 468.016H275.735V616.761H424.48V468.016Z" fill="#62B9ED"/>
<path d="M572.84 468.016H424.094V616.761H572.84V468.016Z" fill="#6ECFE6"/>
<path d="M721.584 468.016H572.839V616.761H721.584V468.016Z" fill="#62B9ED"/>
<path d="M869.944 467.623H721.199V616.387H869.944V467.623Z" fill="#4F98F8"/>
<path d="M572.84 319.271H424.094V468.016H572.84V319.271Z" fill="#74DAE2"/>
<path d="M721.584 319.271H572.839V468.016H721.584V319.271Z" fill="#6ECFE6"/>
<path d="M572.84 616.375H424.094V765.12H572.84V616.375Z" fill="#62B9ED"/>
<path d="M721.584 616.375H572.839V765.12H721.584V616.375Z" fill="#4F98F8"/>
<path d="M817.536 616.376H721.199V712.713H817.536V616.376Z" fill="#4382FF"/>
<path d="M356.273 280.736H230.648V406.36H356.273V280.736Z" fill="#74DAE2"/>
<path d="M471.878 178.618H392.11V258.385H471.878V178.618Z" fill="#6ECFE6"/>
<path d="M305.021 168.214H246.448V226.787H305.021V168.214Z" fill="#4F98F8"/>
<path d="M230.649 451.831H191.343V491.137H230.649V451.831Z" fill="#62B9ED"/>
<path d="M564.361 218.694H525.056V258H564.361V218.694Z" fill="#4F98F8"/>
<path d="M424.094 616.376H327.757V712.713H424.094V616.376Z" fill="#4F98F8"/>
<path d="M817.536 371.293H721.199V467.63H817.536V371.293Z" fill="#62B9ED"/>
<path d="M542.782 897.295H418.699V861.458H506.944V765.12H542.782V897.295Z" fill="#424C66"/>
<path d="M723.125 897.295H598.657V765.12H634.495V861.458H723.125V897.295Z" fill="#424C66"/>
<path d="M721.199 468.016H660.313V616.761H721.199V468.016Z" fill="white"/>
<path d="M721.585 535.452H689.601V616.375H721.585V535.452Z" fill="#424C66"/>
<path d="M572.454 468.016H512.339V616.761H572.454V468.016Z" fill="white"/>
<path d="M572.839 535.452H540.855V616.375H572.839V535.452Z" fill="#424C66"/>
</svg>
